0
SECTION
2
HEADER
9
$INSUNITS
70
4
9
$ACADVER
1
AC1014
9
$HANDSEED
5
FFFF
0
ENDSEC
0
SECTION
2
TABLES
0
TABLE
2
VPORT
5
8
100
AcDbSymbolTable
0
ENDTAB
0
TABLE
2
LTYPE
5
5
100
AcDbSymbolTable
0
LTYPE
5
14
100
AcDbSymbolTableRecord
100
AcDbLinetypeTableRecord
2
BYBLOCK
70
0
0
LTYPE
5
15
100
AcDbSymbolTableRecord
100
AcDbLinetypeTableRecord
2
BYLAYER
70
0
0
ENDTAB
0
TABLE
2
LAYER
5
2
100
AcDbSymbolTable
70
2
0
LAYER
5
50
100
AcDbSymbolTableRecord
100
AcDbLayerTableRecord
2
0
70
0
6
CONTINUOUS
0
ENDTAB
0
TABLE
2
STYLE
5
3
100
AcDbSymbolTable
70
1
0
STYLE
5
11
100
AcDbSymbolTableRecord
100
AcDbTextStyleTableRecord
2
STANDARD
70
0
0
ENDTAB
0
TABLE
2
VIEW
5
6
100
AcDbSymbolTable
70
0
0
ENDTAB
0
TABLE
2
UCS
5
7
100
AcDbSymbolTable
70
0
0
ENDTAB
0
TABLE
2
APPID
5
9
100
AcDbSymbolTable
70
2
0
APPID
5
12
100
AcDbSymbolTableRecord
100
AcDbRegAppTableRecord
2
ACAD
70
0
0
ENDTAB
0
TABLE
2
DIMSTYLE
5
A
100
AcDbSymbolTable
70
1
0
ENDTAB
0
TABLE
2
BLOCK_RECORD
5
1
100
AcDbSymbolTable
70
1
0
BLOCK_RECORD
5
1F
100
AcDbSymbolTableRecord
100
AcDbBlockTableRecord
2
*MODEL_SPACE
0
BLOCK_RECORD
5
1B
100
AcDbSymbolTableRecord
100
AcDbBlockTableRecord
2
*PAPER_SPACE
0
ENDTAB
0
ENDSEC
0
SECTION
2
BLOCKS
0
BLOCK
5
20
100
AcDbEntity
100
AcDbBlockBegin
2
*MODEL_SPACE
0
ENDBLK
5
21
100
AcDbEntity
100
AcDbBlockEnd
0
BLOCK
5
1C
100
AcDbEntity
100
AcDbBlockBegin
2
*PAPER_SPACE
0
ENDBLK
5
1D
100
AcDbEntity
100
AcDbBlockEnd
0
ENDSEC
0
SECTION
2
ENTITIES
0
LWPOLYLINE
5
100
100
AcDbEntity
8
0
100
AcDbPolyline
90
8
70
1
43
0.0
10
116.5
20
-3.0000000000000004
42
-0.41421356237309503
10
117.00000000000001
20
-2.5000000000000004
10
130
20
-2.4999999999999933
42
-0.41421356237309503
10
130.5
20
-3.0000000000000004
10
130.5
20
-16
42
-0.41421356237309503
10
130
20
-16.5
10
117.00000000000001
20
-16.500000000000007
42
-0.41421356237309503
10
116.5
20
-16
0
LWPOLYLINE
5
101
100
AcDbEntity
8
0
100
AcDbPolyline
90
8
70
1
43
0.0
10
16
20
-2.5
10
3.0000000000000004
20
-2.5000000000000004
42
0.41421356237309503
10
2.5
20
-3.0000000000000004
10
2.5000000000000004
20
-16
42
0.41421356237309503
10
3.0000000000000004
20
-16.5
10
16
20
-16.5
42
0.41421356237309503
10
16.5
20
-16
10
16.5
20
-3.0000000000000004
42
0.41421356237309503
0
LWPOLYLINE
5
102
100
AcDbEntity
8
0
100
AcDbPolyline
90
8
70
1
43
0.0
10
54
20
-2.5
10
41.000000000000007
20
-2.5000000000000004
42
0.41421356237309503
10
40.5
20
-3.0000000000000004
10
40.500000000000007
20
-16
42
0.41421356237309503
10
41.000000000000007
20
-16.5
10
54
20
-16.5
42
0.41421356237309503
10
54.5
20
-16
10
54.5
20
-3.0000000000000004
42
0.41421356237309503
0
LWPOLYLINE
5
103
100
AcDbEntity
8
0
100
AcDbPolyline
90
8
70
1
43
0.0
10
35
20
-2.5
10
22
20
-2.5000000000000004
42
0.41421356237309503
10
21.5
20
-3.0000000000000004
10
21.500000000000004
20
-16
42
0.41421356237309503
10
22
20
-16.5
10
35
20
-16.5
42
0.41421356237309503
10
35.5
20
-16
10
35.5
20
-3.0000000000000004
42
0.41421356237309503
0
LWPOLYLINE
5
104
100
AcDbEntity
8
0
100
AcDbPolyline
90
8
70
1
43
0.0
10
149
20
-16.5
10
136
20
-16.500000000000007
42
-0.41421356237309503
10
135.5
20
-16
10
135.5
20
-3.0000000000000004
42
-0.41421356237309503
10
136
20
-2.5
10
149
20
-2.4999999999999933
42
-0.41421356237309503
10
149.5
20
-3.0000000000000004
10
149.5
20
-16
42
-0.41421356237309503
0
LWPOLYLINE
5
105
100
AcDbEntity
8
0
100
AcDbPolyline
90
8
70
1
43
0.0
10
78.5
20
-3.0000000000000004
42
-0.41421356237309503
10
79
20
-2.5000000000000004
10
92.000000000000014
20
-2.4999999999999933
42
-0.41421356237309503
10
92.5
20
-3.0000000000000004
10
92.500000000000014
20
-16
42
-0.41421356237309503
10
92.000000000000014
20
-16.5
10
79
20
-16.5
42
-0.41421356237309503
10
78.5
20
-16
0
LWPOLYLINE
5
106
100
AcDbEntity
8
0
100
AcDbPolyline
90
8
70
1
43
0.0
10
73.5
20
-16
42
-0.41421356237309503
10
73
20
-16.5
10
60
20
-16.5
42
-0.41421356237309503
10
59.5
20
-16
10
59.5
20
-3.0000000000000004
42
-0.41421356237309503
10
60
20
-2.5000000000000004
10
73
20
-2.5000000000000022
42
-0.41421356237309503
10
73.5
20
-3.0000000000000004
0
LWPOLYLINE
5
107
100
AcDbEntity
8
0
100
AcDbPolyline
90
8
70
1
43
0.0
10
97.5
20
-16
10
97.5
20
-3.0000000000000004
42
-0.41421356237309503
10
98
20
-2.5
10
111.00000000000001
20
-2.4999999999999933
42
-0.41421356237309503
10
111.5
20
-3.0000000000000004
10
111.50000000000003
20
-16
42
-0.41421356237309503
10
111.00000000000001
20
-16.5
10
98
20
-16.500000000000007
42
-0.41421356237309503
0
LWPOLYLINE
5
108
100
AcDbEntity
8
0
100
AcDbPolyline
90
8
70
1
43
0.0
10
16.5
20
-35
10
16.5
20
-22
42
0.41421356237309503
10
16
20
-21.5
10
3.0000000000000004
20
-21.500000000000004
42
0.41421356237309503
10
2.5000000000000004
20
-22
10
2.5000000000000004
20
-35
42
0.41421356237309503
10
3.0000000000000004
20
-35.5
10
16
20
-35.5
42
0.41421356237309503
0
LWPOLYLINE
5
109
100
AcDbEntity
8
0
100
AcDbPolyline
90
8
70
1
43
0.0
10
35
20
-35.5
10
22
20
-35.5
42
-0.41421356237309503
10
21.500000000000004
20
-35
10
21.500000000000004
20
-22
42
-0.41421356237309503
10
22
20
-21.500000000000004
10
35
20
-21.500000000000004
42
-0.41421356237309503
10
35.5
20
-22
10
35.5
20
-35
42
-0.41421356237309503
0
LWPOLYLINE
5
110
100
AcDbEntity
8
0
100
AcDbPolyline
90
8
70
1
43
0.0
10
225
20
-2.4999999999999933
42
-0.41421356237309503
10
225.5
20
-3.0000000000000004
10
225.5
20
-16
42
-0.41421356237309503
10
225
20
-16.5
10
212.00000000000003
20
-16.500000000000007
42
-0.41421356237309503
10
211.50000000000003
20
-16
10
211.50000000000003
20
-3.0000000000000004
42
-0.41421356237309503
10
212.00000000000003
20
-2.5
0
LWPOLYLINE
5
111
100
AcDbEntity
8
0
100
AcDbPolyline
90
8
70
1
43
0.0
10
206.50000000000003
20
-16
10
206.50000000000003
20
-3.0000000000000004
42
0.41421356237309503
10
206
20
-2.5
10
193
20
-2.5000000000000004
42
0.41421356237309503
10
192.5
20
-3.0000000000000004
10
192.5
20
-16
42
0.41421356237309503
10
193
20
-16.5
10
206
20
-16.5
42
0.41421356237309503
0
LWPOLYLINE
5
112
100
AcDbEntity
8
0
100
AcDbPolyline
90
8
70
1
43
0.0
10
173.5
20
-16
10
173.5
20
-3.0000000000000004
42
-0.41421356237309503
10
174.00000000000003
20
-2.5000000000000004
10
187
20
-2.4999999999999933
42
-0.41421356237309503
10
187.5
20
-3.0000000000000004
10
187.5
20
-16
42
-0.41421356237309503
10
187
20
-16.5
10
174.00000000000003
20
-16.500000000000007
42
-0.41421356237309503
0
LWPOLYLINE
5
113
100
AcDbEntity
8
0
100
AcDbPolyline
90
8
70
1
43
0.0
10
192.5
20
-22
42
-0.41421356237309503
10
193
20
-21.500000000000004
10
206
20
-21.499999999999993
42
-0.41421356237309503
10
206.50000000000003
20
-22
10
206.50000000000003
20
-35
42
-0.41421356237309503
10
206
20
-35.5
10
193
20
-35.500000000000007
42
-0.41421356237309503
10
192.5
20
-35
0
LWPOLYLINE
5
114
100
AcDbEntity
8
0
100
AcDbPolyline
90
8
70
1
43
0.0
10
168.5
20
-16
42
-0.41421356237309503
10
168
20
-16.5
10
155
20
-16.500000000000007
42
-0.41421356237309503
10
154.5
20
-16
10
154.5
20
-3.0000000000000004
42
-0.41421356237309503
10
155
20
-2.5
10
168
20
-2.4999999999999933
42
-0.41421356237309503
10
168.5
20
-3.0000000000000004
0
LWPOLYLINE
5
115
100
AcDbEntity
8
0
100
AcDbPolyline
90
8
70
1
43
0.0
10
54
20
-21.5
10
41.000000000000007
20
-21.500000000000004
42
0.41421356237309503
10
40.500000000000007
20
-22
10
40.500000000000007
20
-35
42
0.41421356237309503
10
41.000000000000007
20
-35.5
10
54
20
-35.5
42
0.41421356237309503
10
54.5
20
-35
10
54.5
20
-22
42
0.41421356237309503
0
LWPOLYLINE
5
116
100
AcDbEntity
8
0
100
AcDbPolyline
90
8
70
1
43
0.0
10
59.5
20
-35
10
59.5
20
-22
42
-0.41421356237309503
10
60
20
-21.5
10
73
20
-21.500000000000004
42
-0.41421356237309503
10
73.5
20
-22
10
73.5
20
-35
42
-0.41421356237309503
10
73
20
-35.5
10
60
20
-35.5
42
-0.41421356237309503
0
LWPOLYLINE
5
117
100
AcDbEntity
8
0
100
AcDbPolyline
90
8
70
1
43
0.0
10
168
20
-21.499999999999993
42
-0.41421356237309503
10
168.5
20
-22
10
168.5
20
-35
42
-0.41421356237309503
10
168
20
-35.5
10
155
20
-35.500000000000007
42
-0.41421356237309503
10
154.5
20
-35
10
154.5
20
-22
42
-0.41421356237309503
10
155
20
-21.500000000000004
0
LWPOLYLINE
5
118
100
AcDbEntity
8
0
100
AcDbPolyline
90
8
70
1
43
0.0
10
135.5
20
-22
42
-0.41421356237309503
10
136
20
-21.500000000000004
10
149
20
-21.499999999999993
42
-0.41421356237309503
10
149.5
20
-22
10
149.5
20
-35
42
-0.41421356237309503
10
149
20
-35.5
10
136
20
-35.500000000000007
42
-0.41421356237309503
10
135.5
20
-35
0
LWPOLYLINE
5
119
100
AcDbEntity
8
0
100
AcDbPolyline
90
8
70
1
43
0.0
10
78.5
20
-35
10
78.5
20
-22
42
-0.41421356237309503
10
79
20
-21.500000000000004
10
92.000000000000014
20
-21.499999999999993
42
-0.41421356237309503
10
92.500000000000014
20
-22
10
92.5
20
-35
42
-0.41421356237309503
10
92.000000000000014
20
-35.5
10
79
20
-35.5
42
-0.41421356237309503
0
LWPOLYLINE
5
120
100
AcDbEntity
8
0
100
AcDbPolyline
90
8
70
1
43
0.0
10
173.5
20
-22
42
-0.41421356237309503
10
174.00000000000003
20
-21.500000000000004
10
187
20
-21.499999999999993
42
-0.41421356237309503
10
187.5
20
-22
10
187.5
20
-35
42
-0.41421356237309503
10
187
20
-35.5
10
174.00000000000003
20
-35.500000000000007
42
-0.41421356237309503
10
173.5
20
-35
0
LWPOLYLINE
5
121
100
AcDbEntity
8
0
100
AcDbPolyline
90
8
70
1
43
0.0
10
130.5
20
-35
42
-0.41421356237309503
10
130
20
-35.5
10
117.00000000000001
20
-35.500000000000007
42
-0.41421356237309503
10
116.5
20
-35
10
116.50000000000003
20
-22
42
-0.41421356237309503
10
117.00000000000001
20
-21.500000000000004
10
130
20
-21.499999999999993
42
-0.41421356237309503
10
130.5
20
-22
0
LWPOLYLINE
5
122
100
AcDbEntity
8
0
100
AcDbPolyline
90
8
70
1
43
0.0
10
111.00000000000001
20
-35.5
10
98
20
-35.500000000000007
42
-0.41421356237309503
10
97.5
20
-35
10
97.5
20
-22
42
-0.41421356237309503
10
98
20
-21.5
10
111.00000000000001
20
-21.499999999999993
42
-0.41421356237309503
10
111.50000000000003
20
-22
10
111.50000000000003
20
-35
42
-0.41421356237309503
0
LWPOLYLINE
5
123
100
AcDbEntity
8
0
100
AcDbPolyline
90
8
70
1
43
0.0
10
211.50000000000003
20
-35
10
211.50000000000003
20
-22
42
-0.41421356237309503
10
212.00000000000003
20
-21.5
10
225
20
-21.499999999999993
42
-0.41421356237309503
10
225.5
20
-22
10
225.5
20
-35
42
-0.41421356237309503
10
225
20
-35.5
10
212.00000000000003
20
-35.500000000000007
42
-0.41421356237309503
0
LWPOLYLINE
5
124
100
AcDbEntity
8
0
100
AcDbPolyline
90
8
70
1
43
0.0
10
98
20
-54.500000000000014
42
-0.41421356237309503
10
97.5
20
-54
10
97.5
20
-41.000000000000007
42
-0.41421356237309503
10
98
20
-40.5
10
111.00000000000001
20
-40.5
42
-0.41421356237309503
10
111.5
20
-41.000000000000007
10
111.50000000000003
20
-54
42
-0.41421356237309503
10
111.00000000000001
20
-54.5
0
LWPOLYLINE
5
125
100
AcDbEntity
8
0
100
AcDbPolyline
90
8
70
1
43
0.0
10
16.5
20
-54
10
16.5
20
-41.000000000000007
42
0.41421356237309503
10
16
20
-40.500000000000007
10
3.0000000000000004
20
-40.500000000000007
42
0.41421356237309503
10
2.5
20
-41.000000000000007
10
2.5000000000000004
20
-54
42
0.41421356237309503
10
3.0000000000000004
20
-54.5
10
16
20
-54.5
42
0.41421356237309503
0
LWPOLYLINE
5
126
100
AcDbEntity
8
0
100
AcDbPolyline
90
8
70
1
43
0.0
10
73.5
20
-54
42
-0.41421356237309503
10
73
20
-54.5
10
60
20
-54.5
42
-0.41421356237309503
10
59.5
20
-54
10
59.5
20
-41.000000000000007
42
-0.41421356237309503
10
60
20
-40.5
10
73
20
-40.500000000000007
42
-0.41421356237309503
10
73.5
20
-41.000000000000007
0
LWPOLYLINE
5
127
100
AcDbEntity
8
0
100
AcDbPolyline
90
8
70
1
43
0.0
10
130
20
-40.5
10
117.00000000000001
20
-40.500000000000007
42
0.41421356237309503
10
116.5
20
-41.000000000000007
10
116.5
20
-54
42
0.41421356237309503
10
117.00000000000001
20
-54.5
10
130
20
-54.5
42
0.41421356237309503
10
130.5
20
-54
10
130.5
20
-41.000000000000007
42
0.41421356237309503
0
LWPOLYLINE
5
128
100
AcDbEntity
8
0
100
AcDbPolyline
90
8
70
1
43
0.0
10
92.000000000000014
20
-40.5
42
-0.41421356237309503
10
92.500000000000014
20
-41.000000000000007
10
92.5
20
-54
42
-0.41421356237309503
10
92.000000000000014
20
-54.5
10
79
20
-54.5
42
-0.41421356237309503
10
78.5
20
-54
10
78.5
20
-41.000000000000007
42
-0.41421356237309503
10
79
20
-40.500000000000007
0
LWPOLYLINE
5
129
100
AcDbEntity
8
0
100
AcDbPolyline
90
8
70
1
43
0.0
10
41.000000000000007
20
-54.5
42
-0.41421356237309503
10
40.500000000000007
20
-54
10
40.500000000000007
20
-41.000000000000007
42
-0.41421356237309503
10
41.000000000000007
20
-40.5
10
54
20
-40.500000000000007
42
-0.41421356237309503
10
54.5
20
-41.000000000000007
10
54.5
20
-54
42
-0.41421356237309503
10
54
20
-54.5
0
LWPOLYLINE
5
130
100
AcDbEntity
8
0
100
AcDbPolyline
90
8
70
1
43
0.0
10
149
20
-40.5
10
136
20
-40.500000000000007
42
0.41421356237309503
10
135.5
20
-41.000000000000007
10
135.5
20
-54
42
0.41421356237309503
10
136
20
-54.5
10
149
20
-54.5
42
0.41421356237309503
10
149.5
20
-54
10
149.5
20
-41.000000000000007
42
0.41421356237309503
0
LWPOLYLINE
5
131
100
AcDbEntity
8
0
100
AcDbPolyline
90
8
70
1
43
0.0
10
35
20
-54.5
10
22
20
-54.5
42
-0.41421356237309503
10
21.500000000000004
20
-54
10
21.500000000000004
20
-41.000000000000007
42
-0.41421356237309503
10
22
20
-40.5
10
35
20
-40.500000000000007
42
-0.41421356237309503
10
35.5
20
-41.000000000000007
10
35.5
20
-54
42
-0.41421356237309503
0
LWPOLYLINE
5
132
100
AcDbEntity
8
0
100
AcDbPolyline
90
8
70
1
43
0.0
10
41.000000000000007
20
-73.5
42
-0.41421356237309503
10
40.500000000000007
20
-73
10
40.500000000000007
20
-60
42
-0.41421356237309503
10
41.000000000000007
20
-59.5
10
54
20
-59.5
42
-0.41421356237309503
10
54.5
20
-60
10
54.5
20
-73
42
-0.41421356237309503
10
54
20
-73.5
0
LWPOLYLINE
5
133
100
AcDbEntity
8
0
100
AcDbPolyline
90
8
70
1
43
0.0
10
16.5
20
-73
10
16.5
20
-60
42
0.41421356237309503
10
16
20
-59.5
10
3.0000000000000004
20
-59.5
42
0.41421356237309503
10
2.5000000000000004
20
-60
10
2.5000000000000004
20
-73
42
0.41421356237309503
10
3.0000000000000004
20
-73.5
10
16
20
-73.5
42
0.41421356237309503
0
LWPOLYLINE
5
134
100
AcDbEntity
8
0
100
AcDbPolyline
90
8
70
1
43
0.0
10
225.5
20
-54
10
225.5
20
-41.000000000000007
42
0.41421356237309503
10
225
20
-40.500000000000007
10
212.00000000000003
20
-40.500000000000007
42
0.41421356237309503
10
211.50000000000003
20
-41.000000000000007
10
211.50000000000003
20
-54
42
0.41421356237309503
10
212.00000000000003
20
-54.5
10
225
20
-54.5
42
0.41421356237309503
0
LWPOLYLINE
5
135
100
AcDbEntity
8
0
100
AcDbPolyline
90
8
70
1
43
0.0
10
187.5
20
-54
42
-0.41421356237309503
10
187
20
-54.5
10
174.00000000000003
20
-54.500000000000014
42
-0.41421356237309503
10
173.5
20
-54
10
173.5
20
-41.000000000000007
42
-0.41421356237309503
10
174.00000000000003
20
-40.5
10
187
20
-40.5
42
-0.41421356237309503
10
187.5
20
-41.000000000000007
0
LWPOLYLINE
5
136
100
AcDbEntity
8
0
100
AcDbPolyline
90
8
70
1
43
0.0
10
59.5
20
-73
10
59.5
20
-60
42
-0.41421356237309503
10
60
20
-59.5
10
73
20
-59.5
42
-0.41421356237309503
10
73.5
20
-60
10
73.5
20
-73
42
-0.41421356237309503
10
73
20
-73.5
10
60
20
-73.5
42
-0.41421356237309503
0
LWPOLYLINE
5
137
100
AcDbEntity
8
0
100
AcDbPolyline
90
8
70
1
43
0.0
10
168.5
20
-54
10
168.5
20
-41.000000000000007
42
0.41421356237309503
10
168
20
-40.5
10
155
20
-40.500000000000007
42
0.41421356237309503
10
154.5
20
-41.000000000000007
10
154.5
20
-54
42
0.41421356237309503
10
155
20
-54.5
10
168
20
-54.5
42
0.41421356237309503
0
LWPOLYLINE
5
138
100
AcDbEntity
8
0
100
AcDbPolyline
90
8
70
1
43
0.0
10
21.500000000000004
20
-60
42
-0.41421356237309503
10
22
20
-59.5
10
35
20
-59.5
42
-0.41421356237309503
10
35.5
20
-60
10
35.5
20
-73
42
-0.41421356237309503
10
35
20
-73.5
10
22
20
-73.5
42
-0.41421356237309503
10
21.500000000000004
20
-73
0
LWPOLYLINE
5
139
100
AcDbEntity
8
0
100
AcDbPolyline
90
8
70
1
43
0.0
10
136
20
-73.500000000000014
42
-0.41421356237309503
10
135.5
20
-73
10
135.5
20
-60
42
-0.41421356237309503
10
136
20
-59.5
10
149
20
-59.499999999999993
42
-0.41421356237309503
10
149.5
20
-60
10
149.5
20
-73
42
-0.41421356237309503
10
149
20
-73.5
0
LWPOLYLINE
5
140
100
AcDbEntity
8
0
100
AcDbPolyline
90
8
70
1
43
0.0
10
97.5
20
-73
10
97.5
20
-60
42
-0.41421356237309503
10
98
20
-59.5
10
111.00000000000001
20
-59.499999999999993
42
-0.41421356237309503
10
111.50000000000003
20
-60
10
111.50000000000003
20
-73
42
-0.41421356237309503
10
111.00000000000001
20
-73.5
10
98
20
-73.500000000000014
42
-0.41421356237309503
0
LWPOLYLINE
5
141
100
AcDbEntity
8
0
100
AcDbPolyline
90
8
70
1
43
0.0
10
117.00000000000001
20
-73.500000000000014
42
-0.41421356237309503
10
116.5
20
-73
10
116.50000000000003
20
-60
42
-0.41421356237309503
10
117.00000000000001
20
-59.5
10
130
20
-59.499999999999993
42
-0.41421356237309503
10
130.5
20
-60
10
130.5
20
-73
42
-0.41421356237309503
10
130
20
-73.5
0
LWPOLYLINE
5
142
100
AcDbEntity
8
0
100
AcDbPolyline
90
8
70
1
43
0.0
10
206
20
-40.5
42
-0.41421356237309503
10
206.50000000000003
20
-41.000000000000007
10
206.50000000000003
20
-54
42
-0.41421356237309503
10
206
20
-54.5
10
193
20
-54.500000000000014
42
-0.41421356237309503
10
192.5
20
-54
10
192.5
20
-41.000000000000007
42
-0.41421356237309503
10
193
20
-40.500000000000007
0
LWPOLYLINE
5
143
100
AcDbEntity
8
0
100
AcDbPolyline
90
8
70
1
43
0.0
10
92.000000000000014
20
-73.5
10
79
20
-73.5
42
-0.41421356237309503
10
78.5
20
-73
10
78.5
20
-60
42
-0.41421356237309503
10
79
20
-59.5
10
92.000000000000014
20
-59.499999999999993
42
-0.41421356237309503
10
92.5
20
-60
10
92.5
20
-73
42
-0.41421356237309503
0
LWPOLYLINE
5
144
100
AcDbEntity
8
0
100
AcDbPolyline
90
8
70
1
43
0.0
10
206.50000000000003
20
-73
10
206.50000000000003
20
-60
42
0.41421356237309503
10
206
20
-59.5
10
193
20
-59.5
42
0.41421356237309503
10
192.5
20
-60
10
192.5
20
-73
42
0.41421356237309503
10
193
20
-73.5
10
206
20
-73.5
42
0.41421356237309503
0
LWPOLYLINE
5
145
100
AcDbEntity
8
0
100
AcDbPolyline
90
8
70
1
43
0.0
10
154.5
20
-73
10
154.5
20
-60
42
-0.41421356237309503
10
155
20
-59.5
10
168
20
-59.499999999999993
42
-0.41421356237309503
10
168.5
20
-60
10
168.5
20
-73
42
-0.41421356237309503
10
168
20
-73.5
10
155
20
-73.500000000000014
42
-0.41421356237309503
0
LWPOLYLINE
5
146
100
AcDbEntity
8
0
100
AcDbPolyline
90
8
70
1
43
0.0
10
173.5
20
-60
42
-0.41421356237309503
10
174.00000000000003
20
-59.5
10
187
20
-59.499999999999993
42
-0.41421356237309503
10
187.5
20
-60
10
187.5
20
-73
42
-0.41421356237309503
10
187
20
-73.5
10
174.00000000000003
20
-73.500000000000014
42
-0.41421356237309503
10
173.5
20
-73
0
LWPOLYLINE
5
147
100
AcDbEntity
8
0
100
AcDbPolyline
90
8
70
1
43
0.0
10
211.50000000000003
20
-73
10
211.50000000000003
20
-60
42
-0.41421356237309503
10
212.00000000000003
20
-59.5
10
225
20
-59.499999999999993
42
-0.41421356237309503
10
225.5
20
-60
10
225.5
20
-73
42
-0.41421356237309503
10
225
20
-73.5
10
212.00000000000003
20
-73.500000000000014
42
-0.41421356237309503
0
LWPOLYLINE
5
148
100
AcDbEntity
8
0
100
AcDbPolyline
90
8
70
1
43
0.0
10
16.500000000000007
20
-92.000000000000014
42
-0.41421356237309503
10
16
20
-92.500000000000014
10
3.0000000000000004
20
-92.500000000000014
42
-0.41421356237309503
10
2.5000000000000004
20
-92.000000000000014
10
2.5000000000000022
20
-79
42
-0.41421356237309503
10
3.0000000000000004
20
-78.5
10
16
20
-78.5
42
-0.41421356237309503
10
16.5
20
-79
0
LWPOLYLINE
5
149
100
AcDbEntity
8
0
100
AcDbPolyline
90
8
70
1
43
0.0
10
73.5
20
-92.000000000000014
10
73.5
20
-79
42
0.41421356237309503
10
73
20
-78.5
10
60
20
-78.5
42
0.41421356237309503
10
59.5
20
-79
10
59.5
20
-92.000000000000014
42
0.41421356237309503
10
60
20
-92.5
10
73
20
-92.500000000000014
42
0.41421356237309503
0
LWPOLYLINE
5
150
100
AcDbEntity
8
0
100
AcDbPolyline
90
8
70
1
43
0.0
10
97.5
20
-92.000000000000014
10
97.5
20
-79
42
-0.41421356237309503
10
98
20
-78.5
10
111.00000000000001
20
-78.5
42
-0.41421356237309503
10
111.5
20
-79
10
111.50000000000003
20
-92.000000000000014
42
-0.41421356237309503
10
111.00000000000001
20
-92.500000000000014
10
98
20
-92.500000000000014
42
-0.41421356237309503
0
LWPOLYLINE
5
151
100
AcDbEntity
8
0
100
AcDbPolyline
90
8
70
1
43
0.0
10
149
20
-92.5
10
136
20
-92.500000000000014
42
-0.41421356237309503
10
135.5
20
-92.000000000000014
10
135.5
20
-79
42
-0.41421356237309503
10
136
20
-78.5
10
149
20
-78.5
42
-0.41421356237309503
10
149.5
20
-79
10
149.5
20
-92.000000000000014
42
-0.41421356237309503
0
LWPOLYLINE
5
152
100
AcDbEntity
8
0
100
AcDbPolyline
90
8
70
1
43
0.0
10
41.000000000000007
20
-92.5
42
-0.41421356237309503
10
40.500000000000007
20
-92.000000000000014
10
40.500000000000007
20
-79
42
-0.41421356237309503
10
41.000000000000007
20
-78.5
10
54
20
-78.5
42
-0.41421356237309503
10
54.5
20
-79
10
54.500000000000014
20
-92.000000000000014
42
-0.41421356237309503
10
54
20
-92.500000000000014
0
LWPOLYLINE
5
153
100
AcDbEntity
8
0
100
AcDbPolyline
90
8
70
1
43
0.0
10
78.5
20
-92.000000000000014
10
78.5
20
-79
42
-0.41421356237309503
10
79
20
-78.5
10
92.000000000000014
20
-78.5
42
-0.41421356237309503
10
92.5
20
-79
10
92.500000000000014
20
-92.000000000000014
42
-0.41421356237309503
10
92.000000000000014
20
-92.500000000000014
10
79
20
-92.5
42
-0.41421356237309503
0
LWPOLYLINE
5
154
100
AcDbEntity
8
0
100
AcDbPolyline
90
8
70
1
43
0.0
10
116.5
20
-92.000000000000014
10
116.50000000000003
20
-79
42
-0.41421356237309503
10
117.00000000000001
20
-78.5
10
130
20
-78.5
42
-0.41421356237309503
10
130.5
20
-79
10
130.5
20
-92.000000000000014
42
-0.41421356237309503
10
130
20
-92.500000000000014
10
117.00000000000001
20
-92.500000000000014
42
-0.41421356237309503
0
LWPOLYLINE
5
155
100
AcDbEntity
8
0
100
AcDbPolyline
90
8
70
1
43
0.0
10
35
20
-92.5
10
22
20
-92.5
42
-0.41421356237309503
10
21.5
20
-92.000000000000014
10
21.500000000000004
20
-79
42
-0.41421356237309503
10
22
20
-78.5
10
35
20
-78.5
42
-0.41421356237309503
10
35.5
20
-79
10
35.500000000000007
20
-92.000000000000014
42
-0.41421356237309503
0
LWPOLYLINE
5
156
100
AcDbEntity
8
0
100
AcDbPolyline
90
8
70
1
43
0.0
10
168.5
20
-92.000000000000014
42
-0.41421356237309503
10
168
20
-92.500000000000014
10
155
20
-92.500000000000014
42
-0.41421356237309503
10
154.5
20
-92.000000000000014
10
154.5
20
-79
42
-0.41421356237309503
10
155
20
-78.5
10
168
20
-78.5
42
-0.41421356237309503
10
168.5
20
-79
0
LWPOLYLINE
5
157
100
AcDbEntity
8
0
100
AcDbPolyline
90
8
70
1
43
0.0
10
227.00000000000003
20
-95
10
1.0000000000000002
20
-95
42
-0.41421356237309548
10
2.0816681711721685e-15
20
-94
10
0
20
-1
42
-0.4142135623730952
10
1.0000000000000142
20
0
10
227.00000000000003
20
5.8286708792820718e-15
42
-0.41421356237306134
10
228
20
-0.99999999999999645
10
228.00000000000006
20
-94
42
-0.41421356237307422
0
LWPOLYLINE
5
158
100
AcDbEntity
8
0
100
AcDbPolyline
90
8
70
1
43
0.0
10
225.5
20
-92.000000000000014
42
-0.41421356237309503
10
225
20
-92.500000000000014
10
212.00000000000003
20
-92.500000000000014
42
-0.41421356237309503
10
211.50000000000003
20
-92.000000000000014
10
211.50000000000003
20
-79
42
-0.41421356237309503
10
212.00000000000003
20
-78.5
10
225
20
-78.5
42
-0.41421356237309503
10
225.5
20
-79
0
LWPOLYLINE
5
159
100
AcDbEntity
8
0
100
AcDbPolyline
90
8
70
1
43
0.0
10
206
20
-78.5
42
-0.41421356237309503
10
206.50000000000003
20
-79
10
206.50000000000003
20
-92.000000000000014
42
-0.41421356237309503
10
206
20
-92.500000000000014
10
193
20
-92.500000000000014
42
-0.41421356237309503
10
192.5
20
-92.000000000000014
10
192.5
20
-79
42
-0.41421356237309503
10
193
20
-78.5
0
LWPOLYLINE
5
160
100
AcDbEntity
8
0
100
AcDbPolyline
90
8
70
1
43
0.0
10
173.5
20
-92.000000000000014
10
173.5
20
-79
42
-0.41421356237309503
10
174.00000000000003
20
-78.5
10
187
20
-78.5
42
-0.41421356237309503
10
187.5
20
-79
10
187.5
20
-92.000000000000014
42
-0.41421356237309503
10
187
20
-92.5
10
174.00000000000003
20
-92.500000000000014
42
-0.41421356237309503
0
ENDSEC
0
SECTION
2
OBJECTS
0
DICTIONARY
5
C
100
AcDbDictionary
3
ACAD_GROUP
350
D
3
ACAD_MLINESTYLE
350
17
0
DICTIONARY
5
D
100
AcDbDictionary
0
DICTIONARY
5
1A
330
C
100
AcDbDictionary
0
DICTIONARY
5
17
100
AcDbDictionary
0
ENDSEC
0
EOF
