0
SECTION
2
HEADER
9
$INSUNITS
70
4
9
$ACADVER
1
AC1014
9
$HANDSEED
5
FFFF
0
ENDSEC
0
SECTION
2
TABLES
0
TABLE
2
VPORT
5
8
100
AcDbSymbolTable
0
ENDTAB
0
TABLE
2
LTYPE
5
5
100
AcDbSymbolTable
0
LTYPE
5
14
100
AcDbSymbolTableRecord
100
AcDbLinetypeTableRecord
2
BYBLOCK
70
0
0
LTYPE
5
15
100
AcDbSymbolTableRecord
100
AcDbLinetypeTableRecord
2
BYLAYER
70
0
0
ENDTAB
0
TABLE
2
LAYER
5
2
100
AcDbSymbolTable
70
2
0
LAYER
5
50
100
AcDbSymbolTableRecord
100
AcDbLayerTableRecord
2
0
70
0
6
CONTINUOUS
0
ENDTAB
0
TABLE
2
STYLE
5
3
100
AcDbSymbolTable
70
1
0
STYLE
5
11
100
AcDbSymbolTableRecord
100
AcDbTextStyleTableRecord
2
STANDARD
70
0
0
ENDTAB
0
TABLE
2
VIEW
5
6
100
AcDbSymbolTable
70
0
0
ENDTAB
0
TABLE
2
UCS
5
7
100
AcDbSymbolTable
70
0
0
ENDTAB
0
TABLE
2
APPID
5
9
100
AcDbSymbolTable
70
2
0
APPID
5
12
100
AcDbSymbolTableRecord
100
AcDbRegAppTableRecord
2
ACAD
70
0
0
ENDTAB
0
TABLE
2
DIMSTYLE
5
A
100
AcDbSymbolTable
70
1
0
ENDTAB
0
TABLE
2
BLOCK_RECORD
5
1
100
AcDbSymbolTable
70
1
0
BLOCK_RECORD
5
1F
100
AcDbSymbolTableRecord
100
AcDbBlockTableRecord
2
*MODEL_SPACE
0
BLOCK_RECORD
5
1B
100
AcDbSymbolTableRecord
100
AcDbBlockTableRecord
2
*PAPER_SPACE
0
ENDTAB
0
ENDSEC
0
SECTION
2
BLOCKS
0
BLOCK
5
20
100
AcDbEntity
100
AcDbBlockBegin
2
*MODEL_SPACE
0
ENDBLK
5
21
100
AcDbEntity
100
AcDbBlockEnd
0
BLOCK
5
1C
100
AcDbEntity
100
AcDbBlockBegin
2
*PAPER_SPACE
0
ENDBLK
5
1D
100
AcDbEntity
100
AcDbBlockEnd
0
ENDSEC
0
SECTION
2
ENTITIES
0
LWPOLYLINE
5
100
100
AcDbEntity
8
0
100
AcDbPolyline
90
8
70
1
43
0.0
10
225
20
-95
10
3
20
-95
42
-0.41421356237309104
10
-1.6653345369377348e-15
20
-92
10
-5.5511151231257827e-16
20
-3.0000000000000004
42
-0.41421356237309542
10
3.0000000000000071
20
0
10
225
20
1.1102230246251565e-14
42
-0.41421356237308848
10
228
20
-3.0000000000000071
10
228
20
-92
42
-0.41421356237308815
0
LWPOLYLINE
5
101
100
AcDbEntity
8
0
100
AcDbPolyline
90
8
70
1
43
0.0
10
34.75
20
-2.5
10
22.25
20
-2.5
42
0.41421356237309503
10
21.5
20
-3.2499999999999996
10
21.5
20
-15.750000000000002
42
0.41421356237309503
10
22.25
20
-16.5
10
34.75
20
-16.5
42
0.41421356237309503
10
35.5
20
-15.750000000000002
10
35.5
20
-3.25
42
0.41421356237309503
0
LWPOLYLINE
5
102
100
AcDbEntity
8
0
100
AcDbPolyline
90
8
70
1
43
0.0
10
40.5
20
-15.750000000000002
10
40.5
20
-3.25
42
-0.41421356237309503
10
41.25
20
-2.5
10
53.75
20
-2.4999999999999982
42
-0.41421356237309503
10
54.5
20
-3.2499999999999996
10
54.5
20
-15.750000000000002
42
-0.41421356237309503
10
53.75
20
-16.5
10
41.25
20
-16.500000000000004
42
-0.41421356237309503
0
LWPOLYLINE
5
103
100
AcDbEntity
8
0
100
AcDbPolyline
90
8
70
1
43
0.0
10
72.75
20
-2.4999999999999982
42
-0.41421356237309503
10
73.5
20
-3.2499999999999996
10
73.5
20
-15.750000000000002
42
-0.41421356237309503
10
72.75
20
-16.5
10
60.25
20
-16.500000000000004
42
-0.41421356237309503
10
59.5
20
-15.750000000000002
10
59.5
20
-3.25
42
-0.41421356237309503
10
60.25
20
-2.5
0
LWPOLYLINE
5
104
100
AcDbEntity
8
0
100
AcDbPolyline
90
8
70
1
43
0.0
10
173.5
20
-3.25
42
-0.41421356237309503
10
174.25
20
-2.5
10
186.75
20
-2.5000000000000071
42
-0.41421356237309503
10
187.5
20
-3.2499999999999996
10
187.5
20
-15.750000000000002
42
-0.41421356237309503
10
186.75
20
-16.5
10
174.25
20
-16.499999999999993
42
-0.41421356237309503
10
173.5
20
-15.750000000000002
0
LWPOLYLINE
5
105
100
AcDbEntity
8
0
100
AcDbPolyline
90
8
70
1
43
0.0
10
97.500000000000014
20
-3.25
42
-0.41421356237309503
10
98.250000000000014
20
-2.5
10
110.75000000000001
20
-2.5000000000000071
42
-0.41421356237309503
10
111.5
20
-3.2499999999999996
10
111.5
20
-15.750000000000002
42
-0.41421356237309503
10
110.75000000000001
20
-16.5
10
98.250000000000014
20
-16.499999999999993
42
-0.41421356237309503
10
97.5
20
-15.750000000000002
0
LWPOLYLINE
5
106
100
AcDbEntity
8
0
100
AcDbPolyline
90
8
70
1
43
0.0
10
129.75
20
-2.5
10
117.25000000000001
20
-2.5
42
0.41421356237309503
10
116.5
20
-3.2499999999999996
10
116.50000000000003
20
-15.750000000000002
42
0.41421356237309503
10
117.25000000000001
20
-16.5
10
129.75
20
-16.5
42
0.41421356237309503
10
130.5
20
-15.750000000000002
10
130.5
20
-3.25
42
0.41421356237309503
0
LWPOLYLINE
5
107
100
AcDbEntity
8
0
100
AcDbPolyline
90
8
70
1
43
0.0
10
136.25
20
-16.499999999999993
42
-0.41421356237309503
10
135.5
20
-15.750000000000002
10
135.5
20
-3.25
42
-0.41421356237309503
10
136.25
20
-2.5
10
148.75
20
-2.5000000000000071
42
-0.41421356237309503
10
149.5
20
-3.2499999999999996
10
149.5
20
-15.750000000000002
42
-0.41421356237309503
10
148.75
20
-16.5
0
LWPOLYLINE
5
108
100
AcDbEntity
8
0
100
AcDbPolyline
90
8
70
1
43
0.0
10
15.750000000000002
20
-16.5
10
3.25
20
-16.5
42
-0.41421356237309503
10
2.5
20
-15.750000000000002
10
2.5
20
-3.25
42
-0.41421356237309503
10
3.2499999999999996
20
-2.5
10
15.750000000000002
20
-2.5000000000000004
42
-0.41421356237309503
10
16.5
20
-3.2499999999999996
10
16.5
20
-15.750000000000002
42
-0.41421356237309503
0
LWPOLYLINE
5
109
100
AcDbEntity
8
0
100
AcDbPolyline
90
8
70
1
43
0.0
10
206.50000000000003
20
-15.750000000000002
10
206.50000000000003
20
-3.25
42
0.41421356237309503
10
205.75000000000003
20
-2.5
10
193.25000000000003
20
-2.5
42
0.41421356237309503
10
192.5
20
-3.2499999999999996
10
192.50000000000003
20
-15.750000000000002
42
0.41421356237309503
10
193.25000000000003
20
-16.5
10
205.75000000000003
20
-16.5
42
0.41421356237309503
0
LWPOLYLINE
5
110
100
AcDbEntity
8
0
100
AcDbPolyline
90
8
70
1
43
0.0
10
167.75000000000003
20
-2.5000000000000071
42
-0.41421356237309503
10
168.5
20
-3.2499999999999996
10
168.5
20
-15.750000000000002
42
-0.41421356237309503
10
167.75000000000003
20
-16.5
10
155.25
20
-16.499999999999993
42
-0.41421356237309503
10
154.5
20
-15.750000000000002
10
154.5
20
-3.25
42
-0.41421356237309503
10
155.25
20
-2.5
0
LWPOLYLINE
5
111
100
AcDbEntity
8
0
100
AcDbPolyline
90
8
70
1
43
0.0
10
91.75
20
-2.5
10
79.25
20
-2.5
42
0.41421356237309503
10
78.5
20
-3.2499999999999996
10
78.5
20
-15.750000000000002
42
0.41421356237309503
10
79.25
20
-16.5
10
91.75
20
-16.5
42
0.41421356237309503
10
92.5
20
-15.750000000000002
10
92.5
20
-3.25
42
0.41421356237309503
0
LWPOLYLINE
5
112
100
AcDbEntity
8
0
100
AcDbPolyline
90
8
70
1
43
0.0
10
78.5
20
-22.25
42
-0.41421356237309503
10
79.25
20
-21.5
10
91.75
20
-21.500000000000007
42
-0.41421356237309503
10
92.5
20
-22.25
10
92.5
20
-34.75
42
-0.41421356237309503
10
91.75
20
-35.5
10
79.25
20
-35.5
42
-0.41421356237309503
10
78.5
20
-34.75
0
LWPOLYLINE
5
113
100
AcDbEntity
8
0
100
AcDbPolyline
90
8
70
1
43
0.0
10
129.75
20
-21.5
10
117.25000000000001
20
-21.5
42
0.41421356237309503
10
116.5
20
-22.25
10
116.50000000000003
20
-34.75
42
0.41421356237309503
10
117.25000000000001
20
-35.5
10
129.75
20
-35.5
42
0.41421356237309503
10
130.5
20
-34.75
10
130.5
20
-22.25
42
0.41421356237309503
0
LWPOLYLINE
5
114
100
AcDbEntity
8
0
100
AcDbPolyline
90
8
70
1
43
0.0
10
59.5
20
-34.75
10
59.5
20
-22.25
42
-0.41421356237309503
10
60.25
20
-21.5
10
72.75
20
-21.5
42
-0.41421356237309503
10
73.5
20
-22.25
10
73.5
20
-34.75
42
-0.41421356237309503
10
72.75
20
-35.5
10
60.25
20
-35.5
42
-0.41421356237309503
0
LWPOLYLINE
5
115
100
AcDbEntity
8
0
100
AcDbPolyline
90
8
70
1
43
0.0
10
224.75
20
-2.5000000000000071
42
-0.41421356237309503
10
225.5
20
-3.2499999999999996
10
225.5
20
-15.750000000000002
42
-0.41421356237309503
10
224.75
20
-16.5
10
212.25
20
-16.499999999999993
42
-0.41421356237309503
10
211.50000000000003
20
-15.750000000000002
10
211.50000000000003
20
-3.25
42
-0.41421356237309503
10
212.25
20
-2.5
0
LWPOLYLINE
5
116
100
AcDbEntity
8
0
100
AcDbPolyline
90
8
70
1
43
0.0
10
2.4999999999999982
20
-22.25
42
-0.41421356237309503
10
3.2499999999999996
20
-21.5
10
15.750000000000002
20
-21.500000000000004
42
-0.41421356237309503
10
16.5
20
-22.25
10
16.500000000000004
20
-34.75
42
-0.41421356237309503
10
15.750000000000002
20
-35.5
10
3.25
20
-35.5
42
-0.41421356237309503
10
2.5
20
-34.75
0
LWPOLYLINE
5
117
100
AcDbEntity
8
0
100
AcDbPolyline
90
8
70
1
43
0.0
10
53.75
20
-21.5
10
41.25
20
-21.5
42
0.41421356237309503
10
40.5
20
-22.25
10
40.5
20
-34.75
42
0.41421356237309503
10
41.25
20
-35.5
10
53.75
20
-35.5
42
0.41421356237309503
10
54.5
20
-34.75
10
54.5
20
-22.25
42
0.41421356237309503
0
LWPOLYLINE
5
118
100
AcDbEntity
8
0
100
AcDbPolyline
90
8
70
1
43
0.0
10
111.5
20
-34.75
10
111.5
20
-22.25
42
0.41421356237309503
10
110.75000000000001
20
-21.5
10
98.250000000000014
20
-21.5
42
0.41421356237309503
10
97.500000000000014
20
-22.25
10
97.500000000000014
20
-34.75
42
0.41421356237309503
10
98.250000000000014
20
-35.5
10
110.75000000000001
20
-35.5
42
0.41421356237309503
0
LWPOLYLINE
5
119
100
AcDbEntity
8
0
100
AcDbPolyline
90
8
70
1
43
0.0
10
34.75
20
-35.5
10
22.25
20
-35.5
42
-0.41421356237309503
10
21.5
20
-34.75
10
21.5
20
-22.25
42
-0.41421356237309503
10
22.25
20
-21.5
10
34.75
20
-21.5
42
-0.41421356237309503
10
35.5
20
-22.25
10
35.5
20
-34.75
42
-0.41421356237309503
0
LWPOLYLINE
5
120
100
AcDbEntity
8
0
100
AcDbPolyline
90
8
70
1
43
0.0
10
34.75
20
-54.5
10
22.25
20
-54.5
42
-0.41421356237309503
10
21.5
20
-53.75
10
21.5
20
-41.25
42
-0.41421356237309503
10
22.25
20
-40.5
10
34.75
20
-40.5
42
-0.41421356237309503
10
35.5
20
-41.25
10
35.5
20
-53.75
42
-0.41421356237309503
0
LWPOLYLINE
5
121
100
AcDbEntity
8
0
100
AcDbPolyline
90
8
70
1
43
0.0
10
212.25
20
-35.499999999999993
42
-0.41421356237309503
10
211.50000000000003
20
-34.75
10
211.50000000000003
20
-22.25
42
-0.41421356237309503
10
212.25
20
-21.5
10
224.75
20
-21.500000000000007
42
-0.41421356237309503
10
225.5
20
-22.25
10
225.5
20
-34.75
42
-0.41421356237309503
10
224.75
20
-35.5
0
LWPOLYLINE
5
122
100
AcDbEntity
8
0
100
AcDbPolyline
90
8
70
1
43
0.0
10
205.75000000000003
20
-35.5
10
193.25000000000003
20
-35.499999999999993
42
-0.41421356237309503
10
192.5
20
-34.75
10
192.50000000000003
20
-22.25
42
-0.41421356237309503
10
193.25000000000003
20
-21.5
10
205.75000000000003
20
-21.500000000000007
42
-0.41421356237309503
10
206.50000000000003
20
-22.25
10
206.50000000000003
20
-34.75
42
-0.41421356237309503
0
LWPOLYLINE
5
123
100
AcDbEntity
8
0
100
AcDbPolyline
90
8
70
1
43
0.0
10
167.75000000000003
20
-21.5
10
155.25
20
-21.5
42
0.41421356237309503
10
154.5
20
-22.25
10
154.5
20
-34.75
42
0.41421356237309503
10
155.25
20
-35.5
10
167.75000000000003
20
-35.5
42
0.41421356237309503
10
168.5
20
-34.75
10
168.5
20
-22.25
42
0.41421356237309503
0
LWPOLYLINE
5
124
100
AcDbEntity
8
0
100
AcDbPolyline
90
8
70
1
43
0.0
10
136.25
20
-35.499999999999993
42
-0.41421356237309503
10
135.5
20
-34.75
10
135.5
20
-22.25
42
-0.41421356237309503
10
136.25
20
-21.5
10
148.75
20
-21.500000000000007
42
-0.41421356237309503
10
149.5
20
-22.25
10
149.5
20
-34.75
42
-0.41421356237309503
10
148.75
20
-35.5
0
LWPOLYLINE
5
125
100
AcDbEntity
8
0
100
AcDbPolyline
90
8
70
1
43
0.0
10
41.25
20
-54.5
42
-0.41421356237309503
10
40.5
20
-53.75
10
40.5
20
-41.25
42
-0.41421356237309503
10
41.25
20
-40.5
10
53.75
20
-40.5
42
-0.41421356237309503
10
54.5
20
-41.25
10
54.5
20
-53.75
42
-0.41421356237309503
10
53.75
20
-54.5
0
LWPOLYLINE
5
126
100
AcDbEntity
8
0
100
AcDbPolyline
90
8
70
1
43
0.0
10
16.5
20
-53.75
10
16.5
20
-41.25
42
0.41421356237309503
10
15.750000000000002
20
-40.5
10
3.25
20
-40.5
42
0.41421356237309503
10
2.5
20
-41.25
10
2.5
20
-53.75
42
0.41421356237309503
10
3.2499999999999996
20
-54.5
10
15.750000000000002
20
-54.5
42
0.41421356237309503
0
LWPOLYLINE
5
127
100
AcDbEntity
8
0
100
AcDbPolyline
90
8
70
1
43
0.0
10
173.5
20
-34.75
10
173.5
20
-22.25
42
-0.41421356237309503
10
174.25
20
-21.5
10
186.75
20
-21.500000000000007
42
-0.41421356237309503
10
187.5
20
-22.25
10
187.5
20
-34.75
42
-0.41421356237309503
10
186.75
20
-35.5
10
174.25
20
-35.499999999999993
42
-0.41421356237309503
0
LWPOLYLINE
5
128
100
AcDbEntity
8
0
100
AcDbPolyline
90
8
70
1
43
0.0
10
97.5
20
-41.25
42
-0.41421356237309503
10
98.250000000000014
20
-40.5
10
110.75000000000001
20
-40.500000000000007
42
-0.41421356237309503
10
111.5
20
-41.25
10
111.50000000000003
20
-53.75
42
-0.41421356237309503
10
110.75000000000001
20
-54.5
10
98.250000000000014
20
-54.499999999999993
42
-0.41421356237309503
10
97.5
20
-53.75
0
LWPOLYLINE
5
129
100
AcDbEntity
8
0
100
AcDbPolyline
90
8
70
1
43
0.0
10
130.5
20
-53.75
10
130.5
20
-41.25
42
0.41421356237309503
10
129.75
20
-40.5
10
117.25000000000001
20
-40.5
42
0.41421356237309503
10
116.5
20
-41.25
10
116.50000000000003
20
-53.75
42
0.41421356237309503
10
117.25000000000001
20
-54.5
10
129.75
20
-54.5
42
0.41421356237309503
0
LWPOLYLINE
5
130
100
AcDbEntity
8
0
100
AcDbPolyline
90
8
70
1
43
0.0
10
91.75
20
-40.5
10
79.25
20
-40.5
42
0.41421356237309503
10
78.5
20
-41.25
10
78.5
20
-53.75
42
0.41421356237309503
10
79.25
20
-54.5
10
91.75
20
-54.5
42
0.41421356237309503
10
92.5
20
-53.75
10
92.5
20
-41.25
42
0.41421356237309503
0
LWPOLYLINE
5
131
100
AcDbEntity
8
0
100
AcDbPolyline
90
8
70
1
43
0.0
10
148.75
20
-40.5
10
136.25
20
-40.5
42
0.41421356237309503
10
135.5
20
-41.25
10
135.5
20
-53.75
42
0.41421356237309503
10
136.25
20
-54.5
10
148.75
20
-54.5
42
0.41421356237309503
10
149.5
20
-53.75
10
149.5
20
-41.25
42
0.41421356237309503
0
LWPOLYLINE
5
132
100
AcDbEntity
8
0
100
AcDbPolyline
90
8
70
1
43
0.0
10
59.5
20
-41.25
42
-0.41421356237309503
10
60.25
20
-40.5
10
72.75
20
-40.5
42
-0.41421356237309503
10
73.5
20
-41.25
10
73.5
20
-53.75
42
-0.41421356237309503
10
72.75
20
-54.5
10
60.25
20
-54.5
42
-0.41421356237309503
10
59.5
20
-53.75
0
LWPOLYLINE
5
133
100
AcDbEntity
8
0
100
AcDbPolyline
90
8
70
1
43
0.0
10
173.5
20
-41.25
42
-0.41421356237309503
10
174.25
20
-40.5
10
186.75
20
-40.500000000000007
42
-0.41421356237309503
10
187.5
20
-41.25
10
187.5
20
-53.75
42
-0.41421356237309503
10
186.75
20
-54.5
10
174.25
20
-54.499999999999993
42
-0.41421356237309503
10
173.5
20
-53.75
0
LWPOLYLINE
5
134
100
AcDbEntity
8
0
100
AcDbPolyline
90
8
70
1
43
0.0
10
154.5
20
-53.75
10
154.5
20
-41.25
42
-0.41421356237309503
10
155.25
20
-40.5
10
167.75000000000003
20
-40.500000000000007
42
-0.41421356237309503
10
168.5
20
-41.25
10
168.5
20
-53.75
42
-0.41421356237309503
10
167.75000000000003
20
-54.5
10
155.25
20
-54.499999999999993
42
-0.41421356237309503
0
LWPOLYLINE
5
135
100
AcDbEntity
8
0
100
AcDbPolyline
90
8
70
1
43
0.0
10
192.5
20
-53.75
10
192.50000000000003
20
-41.25
42
-0.41421356237309503
10
193.25000000000003
20
-40.5
10
205.75000000000003
20
-40.500000000000007
42
-0.41421356237309503
10
206.50000000000003
20
-41.25
10
206.50000000000003
20
-53.75
42
-0.41421356237309503
10
205.75000000000003
20
-54.5
10
193.25000000000003
20
-54.499999999999993
42
-0.41421356237309503
0
LWPOLYLINE
5
136
100
AcDbEntity
8
0
100
AcDbPolyline
90
8
70
1
43
0.0
10
111.50000000000003
20
-72.75
42
-0.41421356237309503
10
110.75000000000001
20
-73.5
10
98.250000000000014
20
-73.5
42
-0.41421356237309503
10
97.500000000000014
20
-72.75
10
97.5
20
-60.25
42
-0.41421356237309503
10
98.250000000000014
20
-59.5
10
110.75000000000001
20
-59.500000000000014
42
-0.41421356237309503
10
111.5
20
-60.25
0
LWPOLYLINE
5
137
100
AcDbEntity
8
0
100
AcDbPolyline
90
8
70
1
43
0.0
10
129.75
20
-59.5
10
117.25000000000001
20
-59.5
42
0.41421356237309503
10
116.5
20
-60.25
10
116.50000000000003
20
-72.75
42
0.41421356237309503
10
117.25000000000001
20
-73.5
10
129.75
20
-73.5
42
0.41421356237309503
10
130.5
20
-72.75
10
130.5
20
-60.25
42
0.41421356237309503
0
LWPOLYLINE
5
138
100
AcDbEntity
8
0
100
AcDbPolyline
90
8
70
1
43
0.0
10
79.25
20
-73.5
42
-0.41421356237309503
10
78.5
20
-72.75
10
78.5
20
-60.25
42
-0.41421356237309503
10
79.25
20
-59.5
10
91.75
20
-59.500000000000014
42
-0.41421356237309503
10
92.5
20
-60.25
10
92.5
20
-72.75
42
-0.41421356237309503
10
91.75
20
-73.5
0
LWPOLYLINE
5
139
100
AcDbEntity
8
0
100
AcDbPolyline
90
8
70
1
43
0.0
10
72.75
20
-73.5
10
60.25
20
-73.5
42
-0.41421356237309503
10
59.5
20
-72.75
10
59.5
20
-60.25
42
-0.41421356237309503
10
60.25
20
-59.5
10
72.75
20
-59.5
42
-0.41421356237309503
10
73.5
20
-60.25
10
73.5
20
-72.75
42
-0.41421356237309503
0
LWPOLYLINE
5
140
100
AcDbEntity
8
0
100
AcDbPolyline
90
8
70
1
43
0.0
10
224.75
20
-40.5
10
212.25
20
-40.5
42
0.41421356237309503
10
211.50000000000003
20
-41.25
10
211.50000000000003
20
-53.75
42
0.41421356237309503
10
212.25
20
-54.5
10
224.75
20
-54.5
42
0.41421356237309503
10
225.5
20
-53.75
10
225.5
20
-41.25
42
0.41421356237309503
0
LWPOLYLINE
5
141
100
AcDbEntity
8
0
100
AcDbPolyline
90
8
70
1
43
0.0
10
35.5
20
-72.75
10
35.5
20
-60.25
42
0.41421356237309503
10
34.75
20
-59.5
10
22.25
20
-59.5
42
0.41421356237309503
10
21.5
20
-60.25
10
21.5
20
-72.75
42
0.41421356237309503
10
22.25
20
-73.5
10
34.75
20
-73.5
42
0.41421356237309503
0
LWPOLYLINE
5
142
100
AcDbEntity
8
0
100
AcDbPolyline
90
8
70
1
43
0.0
10
54.5
20
-72.75
10
54.5
20
-60.25
42
0.41421356237309503
10
53.75
20
-59.5
10
41.25
20
-59.5
42
0.41421356237309503
10
40.5
20
-60.25
10
40.5
20
-72.75
42
0.41421356237309503
10
41.25
20
-73.5
10
53.75
20
-73.5
42
0.41421356237309503
0
LWPOLYLINE
5
143
100
AcDbEntity
8
0
100
AcDbPolyline
90
8
70
1
43
0.0
10
2.4999999999999982
20
-60.25
42
-0.41421356237309503
10
3.2499999999999996
20
-59.5
10
15.750000000000002
20
-59.5
42
-0.41421356237309503
10
16.5
20
-60.25
10
16.500000000000004
20
-72.75
42
-0.41421356237309503
10
15.750000000000002
20
-73.5
10
3.25
20
-73.5
42
-0.41421356237309503
10
2.5
20
-72.75
0
LWPOLYLINE
5
144
100
AcDbEntity
8
0
100
AcDbPolyline
90
8
70
1
43
0.0
10
192.5
20
-72.75
10
192.50000000000003
20
-60.25
42
-0.41421356237309503
10
193.25000000000003
20
-59.5
10
205.75000000000003
20
-59.500000000000014
42
-0.41421356237309503
10
206.50000000000003
20
-60.25
10
206.50000000000003
20
-72.75
42
-0.41421356237309503
10
205.75000000000003
20
-73.5
10
193.25000000000003
20
-73.5
42
-0.41421356237309503
0
LWPOLYLINE
5
145
100
AcDbEntity
8
0
100
AcDbPolyline
90
8
70
1
43
0.0
10
2.5
20
-91.75
10
2.4999999999999982
20
-79.25
42
-0.41421356237309503
10
3.2499999999999996
20
-78.5
10
15.750000000000002
20
-78.5
42
-0.41421356237309503
10
16.5
20
-79.25
10
16.499999999999993
20
-91.75
42
-0.41421356237309503
10
15.750000000000002
20
-92.5
10
3.25
20
-92.5
42
-0.41421356237309503
0
LWPOLYLINE
5
146
100
AcDbEntity
8
0
100
AcDbPolyline
90
8
70
1
43
0.0
10
167.75000000000003
20
-73.5
10
155.25
20
-73.5
42
-0.41421356237309503
10
154.5
20
-72.75
10
154.5
20
-60.25
42
-0.41421356237309503
10
155.25
20
-59.5
10
167.75000000000003
20
-59.500000000000014
42
-0.41421356237309503
10
168.5
20
-60.25
10
168.5
20
-72.75
42
-0.41421356237309503
0
LWPOLYLINE
5
147
100
AcDbEntity
8
0
100
AcDbPolyline
90
8
70
1
43
0.0
10
211.50000000000003
20
-72.75
10
211.50000000000003
20
-60.25
42
-0.41421356237309503
10
212.25
20
-59.5
10
224.75
20
-59.500000000000014
42
-0.41421356237309503
10
225.5
20
-60.25
10
225.5
20
-72.75
42
-0.41421356237309503
10
224.75
20
-73.5
10
212.25
20
-73.5
42
-0.41421356237309503
0
LWPOLYLINE
5
148
100
AcDbEntity
8
0
100
AcDbPolyline
90
8
70
1
43
0.0
10
186.75
20
-59.5
10
174.25
20
-59.5
42
0.41421356237309503
10
173.5
20
-60.25
10
173.5
20
-72.75
42
0.41421356237309503
10
174.25
20
-73.5
10
186.75
20
-73.5
42
0.41421356237309503
10
187.5
20
-72.75
10
187.5
20
-60.25
42
0.41421356237309503
0
LWPOLYLINE
5
149
100
AcDbEntity
8
0
100
AcDbPolyline
90
8
70
1
43
0.0
10
148.75
20
-73.5
10
136.25
20
-73.5
42
-0.41421356237309503
10
135.5
20
-72.75
10
135.5
20
-60.25
42
-0.41421356237309503
10
136.25
20
-59.5
10
148.75
20
-59.500000000000014
42
-0.41421356237309503
10
149.5
20
-60.25
10
149.5
20
-72.75
42
-0.41421356237309503
0
LWPOLYLINE
5
150
100
AcDbEntity
8
0
100
AcDbPolyline
90
8
70
1
43
0.0
10
22.25
20
-92.5
42
-0.41421356237309503
10
21.5
20
-91.75
10
21.5
20
-79.25
42
-0.41421356237309503
10
22.25
20
-78.5
10
34.75
20
-78.5
42
-0.41421356237309503
10
35.5
20
-79.25
10
35.499999999999993
20
-91.75
42
-0.41421356237309503
10
34.75
20
-92.5
0
LWPOLYLINE
5
151
100
AcDbEntity
8
0
100
AcDbPolyline
90
8
70
1
43
0.0
10
92.5
20
-91.75
42
-0.41421356237309503
10
91.75
20
-92.5
10
79.25
20
-92.5
42
-0.41421356237309503
10
78.5
20
-91.75
10
78.5
20
-79.25
42
-0.41421356237309503
10
79.25
20
-78.5
10
91.75
20
-78.500000000000014
42
-0.41421356237309503
10
92.5
20
-79.25
0
LWPOLYLINE
5
152
100
AcDbEntity
8
0
100
AcDbPolyline
90
8
70
1
43
0.0
10
129.75
20
-78.500000000000014
42
-0.41421356237309503
10
130.5
20
-79.25
10
130.5
20
-91.75
42
-0.41421356237309503
10
129.75
20
-92.5
10
117.25000000000001
20
-92.5
42
-0.41421356237309503
10
116.50000000000003
20
-91.75
10
116.50000000000003
20
-79.25
42
-0.41421356237309503
10
117.25000000000001
20
-78.5
0
LWPOLYLINE
5
153
100
AcDbEntity
8
0
100
AcDbPolyline
90
8
70
1
43
0.0
10
205.75000000000003
20
-92.5
10
193.25000000000003
20
-92.5
42
-0.41421356237309503
10
192.50000000000003
20
-91.75
10
192.50000000000003
20
-79.25
42
-0.41421356237309503
10
193.25000000000003
20
-78.5
10
205.75000000000003
20
-78.500000000000014
42
-0.41421356237309503
10
206.50000000000003
20
-79.25
10
206.50000000000003
20
-91.75
42
-0.41421356237309503
0
LWPOLYLINE
5
154
100
AcDbEntity
8
0
100
AcDbPolyline
90
8
70
1
43
0.0
10
72.75
20
-78.5
42
-0.41421356237309503
10
73.5
20
-79.25
10
73.5
20
-91.75
42
-0.41421356237309503
10
72.75
20
-92.5
10
60.25
20
-92.5
42
-0.41421356237309503
10
59.5
20
-91.75
10
59.5
20
-79.25
42
-0.41421356237309503
10
60.25
20
-78.5
0
LWPOLYLINE
5
155
100
AcDbEntity
8
0
100
AcDbPolyline
90
8
70
1
43
0.0
10
53.75
20
-78.5
10
41.25
20
-78.5
42
0.41421356237309503
10
40.5
20
-79.25
10
40.5
20
-91.75
42
0.41421356237309503
10
41.25
20
-92.5
10
53.75
20
-92.5
42
0.41421356237309503
10
54.5
20
-91.75
10
54.5
20
-79.25
42
0.41421356237309503
0
LWPOLYLINE
5
156
100
AcDbEntity
8
0
100
AcDbPolyline
90
8
70
1
43
0.0
10
149.5
20
-91.75
42
-0.41421356237309503
10
148.75
20
-92.5
10
136.25
20
-92.5
42
-0.41421356237309503
10
135.5
20
-91.75
10
135.5
20
-79.25
42
-0.41421356237309503
10
136.25
20
-78.5
10
148.75
20
-78.500000000000014
42
-0.41421356237309503
10
149.5
20
-79.25
0
LWPOLYLINE
5
157
100
AcDbEntity
8
0
100
AcDbPolyline
90
8
70
1
43
0.0
10
186.75
20
-92.5
10
174.25
20
-92.5
42
-0.41421356237309503
10
173.5
20
-91.75
10
173.5
20
-79.25
42
-0.41421356237309503
10
174.25
20
-78.5
10
186.75
20
-78.500000000000014
42
-0.41421356237309503
10
187.5
20
-79.25
10
187.5
20
-91.75
42
-0.41421356237309503
0
LWPOLYLINE
5
158
100
AcDbEntity
8
0
100
AcDbPolyline
90
8
70
1
43
0.0
10
155.25
20
-92.5
42
-0.41421356237309503
10
154.5
20
-91.75
10
154.5
20
-79.25
42
-0.41421356237309503
10
155.25
20
-78.5
10
167.75000000000003
20
-78.500000000000014
42
-0.41421356237309503
10
168.5
20
-79.25
10
168.5
20
-91.75
42
-0.41421356237309503
10
167.75000000000003
20
-92.5
0
LWPOLYLINE
5
159
100
AcDbEntity
8
0
100
AcDbPolyline
90
8
70
1
43
0.0
10
97.5
20
-79.25
42
-0.41421356237309503
10
98.250000000000014
20
-78.5
10
110.75000000000001
20
-78.500000000000014
42
-0.41421356237309503
10
111.5
20
-79.25
10
111.5
20
-91.75
42
-0.41421356237309503
10
110.75000000000001
20
-92.5
10
98.250000000000014
20
-92.5
42
-0.41421356237309503
10
97.500000000000014
20
-91.75
0
LWPOLYLINE
5
160
100
AcDbEntity
8
0
100
AcDbPolyline
90
8
70
1
43
0.0
10
224.75
20
-92.5
10
212.25
20
-92.5
42
-0.41421356237309503
10
211.50000000000003
20
-91.75
10
211.50000000000003
20
-79.25
42
-0.41421356237309503
10
212.25
20
-78.5
10
224.75
20
-78.500000000000014
42
-0.41421356237309503
10
225.5
20
-79.25
10
225.5
20
-91.75
42
-0.41421356237309503
0
ENDSEC
0
SECTION
2
OBJECTS
0
DICTIONARY
5
C
100
AcDbDictionary
3
ACAD_GROUP
350
D
3
ACAD_MLINESTYLE
350
17
0
DICTIONARY
5
D
100
AcDbDictionary
0
DICTIONARY
5
1A
330
C
100
AcDbDictionary
0
DICTIONARY
5
17
100
AcDbDictionary
0
ENDSEC
0
EOF
