0
SECTION
2
HEADER
9
$INSUNITS
70
4
9
$ACADVER
1
AC1014
9
$HANDSEED
5
FFFF
0
ENDSEC
0
SECTION
2
TABLES
0
TABLE
2
VPORT
5
8
100
AcDbSymbolTable
0
ENDTAB
0
TABLE
2
LTYPE
5
5
100
AcDbSymbolTable
0
LTYPE
5
14
100
AcDbSymbolTableRecord
100
AcDbLinetypeTableRecord
2
BYBLOCK
70
0
0
LTYPE
5
15
100
AcDbSymbolTableRecord
100
AcDbLinetypeTableRecord
2
BYLAYER
70
0
0
ENDTAB
0
TABLE
2
LAYER
5
2
100
AcDbSymbolTable
70
2
0
LAYER
5
50
100
AcDbSymbolTableRecord
100
AcDbLayerTableRecord
2
0
70
0
6
CONTINUOUS
0
ENDTAB
0
TABLE
2
STYLE
5
3
100
AcDbSymbolTable
70
1
0
STYLE
5
11
100
AcDbSymbolTableRecord
100
AcDbTextStyleTableRecord
2
STANDARD
70
0
0
ENDTAB
0
TABLE
2
VIEW
5
6
100
AcDbSymbolTable
70
0
0
ENDTAB
0
TABLE
2
UCS
5
7
100
AcDbSymbolTable
70
0
0
ENDTAB
0
TABLE
2
APPID
5
9
100
AcDbSymbolTable
70
2
0
APPID
5
12
100
AcDbSymbolTableRecord
100
AcDbRegAppTableRecord
2
ACAD
70
0
0
ENDTAB
0
TABLE
2
DIMSTYLE
5
A
100
AcDbSymbolTable
70
1
0
ENDTAB
0
TABLE
2
BLOCK_RECORD
5
1
100
AcDbSymbolTable
70
1
0
BLOCK_RECORD
5
1F
100
AcDbSymbolTableRecord
100
AcDbBlockTableRecord
2
*MODEL_SPACE
0
BLOCK_RECORD
5
1B
100
AcDbSymbolTableRecord
100
AcDbBlockTableRecord
2
*PAPER_SPACE
0
ENDTAB
0
ENDSEC
0
SECTION
2
BLOCKS
0
BLOCK
5
20
100
AcDbEntity
100
AcDbBlockBegin
2
*MODEL_SPACE
0
ENDBLK
5
21
100
AcDbEntity
100
AcDbBlockEnd
0
BLOCK
5
1C
100
AcDbEntity
100
AcDbBlockBegin
2
*PAPER_SPACE
0
ENDBLK
5
1D
100
AcDbEntity
100
AcDbBlockEnd
0
ENDSEC
0
SECTION
2
ENTITIES
0
LWPOLYLINE
5
100
100
AcDbEntity
8
0
100
AcDbPolyline
90
20
70
1
43
0.0
10
123.64482879638672
20
25.599935054779067
10
123.64482879638672
20
31.400039196014419
10
124.44543838500977
20
31.400039196014419
10
124.44543838500977
20
34.499542713165297
10
123.64482879638672
20
34.499542713165297
10
123.64482879638672
20
35.499641895294204
10
109.64527130126953
20
35.499641895294204
10
109.64527130126953
20
34.499542713165297
10
108.84601593017578
20
34.499542713165297
10
108.84601593017578
20
31.400039196014419
10
109.64527130126953
20
31.400039196014419
10
109.64527130126953
20
25.599935054779067
10
108.84601593017578
20
25.599935054779067
10
108.84601593017578
20
22.499434947967544
10
109.64527130126953
20
22.499434947967544
10
109.64527130126953
20
21.500334739685073
10
123.64482879638672
20
21.500334739685073
10
123.64482879638672
20
22.499434947967544
10
124.44543838500977
20
22.499434947967544
10
124.44543838500977
20
25.599935054779067
0
LWPOLYLINE
5
101
100
AcDbEntity
8
0
100
AcDbPolyline
90
20
70
1
43
0.0
10
123.64482879638672
20
44.599947929382331
10
123.64482879638672
20
50.400052070617683
10
124.44543838500977
20
50.400052070617683
10
124.44543838500977
20
53.499555587768562
10
123.64482879638672
20
53.499555587768562
10
123.64482879638672
20
54.499654769897468
10
109.64527130126953
20
54.499654769897468
10
109.64527130126953
20
53.499555587768562
10
108.84601593017578
20
53.499555587768562
10
108.84601593017578
20
50.400052070617683
10
109.64527130126953
20
50.400052070617683
10
109.64527130126953
20
44.599947929382331
10
108.84601593017578
20
44.599947929382331
10
108.84601593017578
20
41.499447822570808
10
109.64527130126953
20
41.499447822570808
10
109.64527130126953
20
40.500349998474128
10
123.64482879638672
20
40.500349998474128
10
123.64482879638672
20
41.499447822570808
10
124.44543838500977
20
41.499447822570808
10
124.44543838500977
20
44.599947929382331
0
LWPOLYLINE
5
102
100
AcDbEntity
8
0
100
AcDbPolyline
90
20
70
1
43
0.0
10
123.64482879638672
20
63.599963188171394
10
123.64482879638672
20
69.40006256103517
10
124.44543838500977
20
69.40006256103517
10
124.44543838500977
20
72.499566078186049
10
123.64482879638672
20
72.499566078186049
10
123.64482879638672
20
73.499665260314956
10
109.64527130126953
20
73.499665260314956
10
109.64527130126953
20
72.499566078186049
10
108.84601593017578
20
72.499566078186049
10
108.84601593017578
20
69.40006256103517
10
109.64527130126953
20
69.40006256103517
10
109.64527130126953
20
63.599963188171394
10
108.84601593017578
20
63.599963188171394
10
108.84601593017578
20
60.499458312988288
10
109.64527130126953
20
60.499458312988288
10
109.64527130126953
20
59.500360488891609
10
123.64482879638672
20
59.500360488891609
10
123.64482879638672
20
60.499458312988288
10
124.44543838500977
20
60.499458312988288
10
124.44543838500977
20
63.599963188171394
0
LWPOLYLINE
5
103
100
AcDbEntity
8
0
100
AcDbPolyline
90
20
70
1
43
0.0
10
104.64482307434082
20
6.5999227762222397
10
104.64482307434082
20
12.400026321411143
10
105.4454231262207
20
12.400026321411143
10
105.4454231262207
20
15.499528646469127
10
104.64482307434082
20
15.499528646469127
10
104.64482307434082
20
16.499627828598033
10
90.645265579223633
20
16.499627828598033
10
90.645265579223633
20
15.499528646469127
10
89.846000671386719
20
15.499528646469127
10
89.846000671386719
20
12.400026321411143
10
90.645265579223633
20
12.400026321411143
10
90.645265579223633
20
6.5999227762222397
10
89.846000671386719
20
6.5999227762222397
10
89.846000671386719
20
3.4994211792945973
10
90.645265579223633
20
3.4994211792945973
10
90.645265579223633
20
2.5003206729889027
10
104.64482307434082
20
2.5003206729889027
10
104.64482307434082
20
3.4994211792945973
10
105.4454231262207
20
3.4994211792945973
10
105.4454231262207
20
6.5999227762222397
0
LWPOLYLINE
5
104
100
AcDbEntity
8
0
100
AcDbPolyline
90
20
70
1
43
0.0
10
105.4454231262207
20
31.400039196014419
10
105.4454231262207
20
34.499542713165297
10
104.64482307434082
20
34.499542713165297
10
104.64482307434082
20
35.499641895294204
10
90.645265579223633
20
35.499641895294204
10
90.645265579223633
20
34.499542713165297
10
89.846000671386719
20
34.499542713165297
10
89.846000671386719
20
31.400039196014419
10
90.645265579223633
20
31.400039196014419
10
90.645265579223633
20
25.599935054779067
10
89.846000671386719
20
25.599935054779067
10
89.846000671386719
20
22.499434947967544
10
90.645265579223633
20
22.499434947967544
10
90.645265579223633
20
21.500334739685073
10
104.64482307434082
20
21.500334739685073
10
104.64482307434082
20
22.499434947967544
10
105.4454231262207
20
22.499434947967544
10
105.4454231262207
20
25.599935054779067
10
104.64482307434082
20
25.599935054779067
10
104.64482307434082
20
31.400039196014419
0
LWPOLYLINE
5
105
100
AcDbEntity
8
0
100
AcDbPolyline
90
20
70
1
43
0.0
10
105.4454231262207
20
50.400052070617683
10
105.4454231262207
20
53.499555587768562
10
104.64482307434082
20
53.499555587768562
10
104.64482307434082
20
54.499654769897468
10
90.645265579223633
20
54.499654769897468
10
90.645265579223633
20
53.499555587768562
10
89.846000671386719
20
53.499555587768562
10
89.846000671386719
20
50.400052070617683
10
90.645265579223633
20
50.400052070617683
10
90.645265579223633
20
44.599947929382331
10
89.846000671386719
20
44.599947929382331
10
89.846000671386719
20
41.499447822570808
10
90.645265579223633
20
41.499447822570808
10
90.645265579223633
20
40.500349998474128
10
104.64482307434082
20
40.500349998474128
10
104.64482307434082
20
41.499447822570808
10
105.4454231262207
20
41.499447822570808
10
105.4454231262207
20
44.599947929382331
10
104.64482307434082
20
44.599947929382331
10
104.64482307434082
20
50.400052070617683
0
LWPOLYLINE
5
106
100
AcDbEntity
8
0
100
AcDbPolyline
90
20
70
1
43
0.0
10
105.4454231262207
20
69.40006256103517
10
105.4454231262207
20
72.499566078186049
10
104.64482307434082
20
72.499566078186049
10
104.64482307434082
20
73.499665260314956
10
90.645265579223633
20
73.499665260314956
10
90.645265579223633
20
72.499566078186049
10
89.846000671386719
20
72.499566078186049
10
89.846000671386719
20
69.40006256103517
10
90.645265579223633
20
69.40006256103517
10
90.645265579223633
20
63.599963188171394
10
89.846000671386719
20
63.599963188171394
10
89.846000671386719
20
60.499458312988288
10
90.645265579223633
20
60.499458312988288
10
90.645265579223633
20
59.500360488891609
10
104.64482307434082
20
59.500360488891609
10
104.64482307434082
20
60.499458312988288
10
105.4454231262207
20
60.499458312988288
10
105.4454231262207
20
63.599963188171394
10
104.64482307434082
20
63.599963188171394
10
104.64482307434082
20
69.40006256103517
0
LWPOLYLINE
5
107
100
AcDbEntity
8
0
100
AcDbPolyline
90
20
70
1
43
0.0
10
86.445407867431641
20
31.400039196014419
10
86.445407867431641
20
34.499542713165297
10
85.644807815551758
20
34.499542713165297
10
85.644807815551758
20
35.499641895294204
10
71.64525032043457
20
35.499641895294204
10
71.64525032043457
20
34.499542713165297
10
70.845985412597656
20
34.499542713165297
10
70.845985412597656
20
31.400039196014419
10
71.64525032043457
20
31.400039196014419
10
71.64525032043457
20
25.599935054779067
10
70.845985412597656
20
25.599935054779067
10
70.845985412597656
20
22.499434947967544
10
71.64525032043457
20
22.499434947967544
10
71.64525032043457
20
21.500334739685073
10
85.644807815551758
20
21.500334739685073
10
85.644807815551758
20
22.499434947967544
10
86.445407867431641
20
22.499434947967544
10
86.445407867431641
20
25.599935054779067
10
85.644807815551758
20
25.599935054779067
10
85.644807815551758
20
31.400039196014419
0
LWPOLYLINE
5
108
100
AcDbEntity
8
0
100
AcDbPolyline
90
20
70
1
43
0.0
10
86.445407867431641
20
50.400052070617683
10
86.445407867431641
20
53.499555587768562
10
85.644807815551758
20
53.499555587768562
10
85.644807815551758
20
54.499654769897468
10
71.64525032043457
20
54.499654769897468
10
71.64525032043457
20
53.499555587768562
10
70.845985412597656
20
53.499555587768562
10
70.845985412597656
20
50.400052070617683
10
71.64525032043457
20
50.400052070617683
10
71.64525032043457
20
44.599947929382331
10
70.845985412597656
20
44.599947929382331
10
70.845985412597656
20
41.499447822570808
10
71.64525032043457
20
41.499447822570808
10
71.64525032043457
20
40.500349998474128
10
85.644807815551758
20
40.500349998474128
10
85.644807815551758
20
41.499447822570808
10
86.445407867431641
20
41.499447822570808
10
86.445407867431641
20
44.599947929382331
10
85.644807815551758
20
44.599947929382331
10
85.644807815551758
20
50.400052070617683
0
LWPOLYLINE
5
109
100
AcDbEntity
8
0
100
AcDbPolyline
90
20
70
1
43
0.0
10
86.445407867431641
20
69.40006256103517
10
86.445407867431641
20
72.499566078186049
10
85.644807815551758
20
72.499566078186049
10
85.644807815551758
20
73.499665260314956
10
71.64525032043457
20
73.499665260314956
10
71.64525032043457
20
72.499566078186049
10
70.845985412597656
20
72.499566078186049
10
70.845985412597656
20
69.40006256103517
10
71.64525032043457
20
69.40006256103517
10
71.64525032043457
20
63.599963188171394
10
70.845985412597656
20
63.599963188171394
10
70.845985412597656
20
60.499458312988288
10
71.64525032043457
20
60.499458312988288
10
71.64525032043457
20
59.500360488891609
10
85.644807815551758
20
59.500360488891609
10
85.644807815551758
20
60.499458312988288
10
86.445407867431641
20
60.499458312988288
10
86.445407867431641
20
63.599963188171394
10
85.644807815551758
20
63.599963188171394
10
85.644807815551758
20
69.40006256103517
0
LWPOLYLINE
5
110
100
AcDbEntity
8
0
100
AcDbPolyline
90
20
70
1
43
0.0
10
66.644792556762695
20
25.599935054779067
10
66.644792556762695
20
31.400039196014419
10
67.445387840270996
20
31.400039196014419
10
67.445387840270996
20
34.499542713165297
10
66.644792556762695
20
34.499542713165297
10
66.644792556762695
20
35.499641895294204
10
52.645235061645508
20
35.499641895294204
10
52.645235061645508
20
34.499542713165297
10
51.845974922180176
20
34.499542713165297
10
51.845974922180176
20
31.400039196014419
10
52.645235061645508
20
31.400039196014419
10
52.645235061645508
20
25.599935054779067
10
51.845974922180176
20
25.599935054779067
10
51.845974922180176
20
22.499434947967544
10
52.645235061645508
20
22.499434947967544
10
52.645235061645508
20
21.500334739685073
10
66.644792556762695
20
21.500334739685073
10
66.644792556762695
20
22.499434947967544
10
67.445387840270996
20
22.499434947967544
10
67.445387840270996
20
25.599935054779067
0
LWPOLYLINE
5
111
100
AcDbEntity
8
0
100
AcDbPolyline
90
20
70
1
43
0.0
10
67.445387840270996
20
50.400052070617683
10
67.445387840270996
20
53.499555587768562
10
66.644792556762695
20
53.499555587768562
10
66.644792556762695
20
54.499654769897468
10
52.645235061645508
20
54.499654769897468
10
52.645235061645508
20
53.499555587768562
10
51.845974922180176
20
53.499555587768562
10
51.845974922180176
20
50.400052070617683
10
52.645235061645508
20
50.400052070617683
10
52.645235061645508
20
44.599947929382331
10
51.845974922180176
20
44.599947929382331
10
51.845974922180176
20
41.499447822570808
10
52.645235061645508
20
41.499447822570808
10
52.645235061645508
20
40.500349998474128
10
66.644792556762695
20
40.500349998474128
10
66.644792556762695
20
41.499447822570808
10
67.445387840270996
20
41.499447822570808
10
67.445387840270996
20
44.599947929382331
10
66.644792556762695
20
44.599947929382331
10
66.644792556762695
20
50.400052070617683
0
LWPOLYLINE
5
112
100
AcDbEntity
8
0
100
AcDbPolyline
90
20
70
1
43
0.0
10
67.445387840270996
20
69.40006256103517
10
67.445387840270996
20
72.499566078186049
10
66.644792556762695
20
72.499566078186049
10
66.644792556762695
20
73.499665260314956
10
52.645235061645508
20
73.499665260314956
10
52.645235061645508
20
72.499566078186049
10
51.845974922180176
20
72.499566078186049
10
51.845974922180176
20
69.40006256103517
10
52.645235061645508
20
69.40006256103517
10
52.645235061645508
20
63.599963188171394
10
51.845974922180176
20
63.599963188171394
10
51.845974922180176
20
60.499458312988288
10
52.645235061645508
20
60.499458312988288
10
52.645235061645508
20
59.500360488891609
10
66.644792556762695
20
59.500360488891609
10
66.644792556762695
20
60.499458312988288
10
67.445387840270996
20
60.499458312988288
10
67.445387840270996
20
63.599963188171394
10
66.644792556762695
20
63.599963188171394
10
66.644792556762695
20
69.40006256103517
0
LWPOLYLINE
5
113
100
AcDbEntity
8
0
100
AcDbPolyline
90
20
70
1
43
0.0
10
48.445382118225098
20
31.400039196014419
10
48.445382118225098
20
34.499542713165297
10
47.644782066345215
20
34.499542713165297
10
47.644782066345215
20
35.499641895294204
10
33.645222187042236
20
35.499641895294204
10
33.645222187042236
20
34.499542713165297
10
32.845962047576904
20
34.499542713165297
10
32.845962047576904
20
31.400039196014419
10
33.645222187042236
20
31.400039196014419
10
33.645222187042236
20
25.599935054779067
10
32.845962047576904
20
25.599935054779067
10
32.845962047576904
20
22.499434947967544
10
33.645222187042236
20
22.499434947967544
10
33.645222187042236
20
21.500334739685073
10
47.644782066345215
20
21.500334739685073
10
47.644782066345215
20
22.499434947967544
10
48.445382118225098
20
22.499434947967544
10
48.445382118225098
20
25.599935054779067
10
47.644782066345215
20
25.599935054779067
10
47.644782066345215
20
31.400039196014419
0
LWPOLYLINE
5
114
100
AcDbEntity
8
0
100
AcDbPolyline
90
20
70
1
43
0.0
10
48.445382118225098
20
50.400052070617683
10
48.445382118225098
20
53.499555587768562
10
47.644782066345215
20
53.499555587768562
10
47.644782066345215
20
54.499654769897468
10
33.645222187042236
20
54.499654769897468
10
33.645222187042236
20
53.499555587768562
10
32.845962047576904
20
53.499555587768562
10
32.845962047576904
20
50.400052070617683
10
33.645222187042236
20
50.400052070617683
10
33.645222187042236
20
44.599947929382331
10
32.845962047576904
20
44.599947929382331
10
32.845962047576904
20
41.499447822570808
10
33.645222187042236
20
41.499447822570808
10
33.645222187042236
20
40.500349998474128
10
47.644782066345215
20
40.500349998474128
10
47.644782066345215
20
41.499447822570808
10
48.445382118225098
20
41.499447822570808
10
48.445382118225098
20
44.599947929382331
10
47.644782066345215
20
44.599947929382331
10
47.644782066345215
20
50.400052070617683
0
LWPOLYLINE
5
115
100
AcDbEntity
8
0
100
AcDbPolyline
90
20
70
1
43
0.0
10
48.445382118225098
20
69.40006256103517
10
48.445382118225098
20
72.499566078186049
10
47.644782066345215
20
72.499566078186049
10
47.644782066345215
20
73.499665260314956
10
33.645222187042236
20
73.499665260314956
10
33.645222187042236
20
72.499566078186049
10
32.845962047576904
20
72.499566078186049
10
32.845962047576904
20
69.40006256103517
10
33.645222187042236
20
69.40006256103517
10
33.645222187042236
20
63.599963188171394
10
32.845962047576904
20
63.599963188171394
10
32.845962047576904
20
60.499458312988288
10
33.645222187042236
20
60.499458312988288
10
33.645222187042236
20
59.500360488891609
10
47.644782066345215
20
59.500360488891609
10
47.644782066345215
20
60.499458312988288
10
48.445382118225098
20
60.499458312988288
10
48.445382118225098
20
63.599963188171394
10
47.644782066345215
20
63.599963188171394
10
47.644782066345215
20
69.40006256103517
0
LWPOLYLINE
5
116
100
AcDbEntity
8
0
100
AcDbPolyline
90
20
70
1
43
0.0
10
28.644766807556152
20
25.599935054779067
10
28.644766807556152
20
31.400039196014419
10
29.445369243621826
20
31.400039196014419
10
29.445369243621826
20
34.499542713165297
10
28.644766807556152
20
34.499542713165297
10
28.644766807556152
20
35.499641895294204
10
14.645209312438965
20
35.499641895294204
10
14.645209312438965
20
34.499542713165297
10
13.845947980880737
20
34.499542713165297
10
13.845947980880737
20
31.400039196014419
10
14.645209312438965
20
31.400039196014419
10
14.645209312438965
20
25.599935054779067
10
13.845947980880737
20
25.599935054779067
10
13.845947980880737
20
22.499434947967544
10
14.645209312438965
20
22.499434947967544
10
14.645209312438965
20
21.500334739685073
10
28.644766807556152
20
21.500334739685073
10
28.644766807556152
20
22.499434947967544
10
29.445369243621826
20
22.499434947967544
10
29.445369243621826
20
25.599935054779067
0
LWPOLYLINE
5
117
100
AcDbEntity
8
0
100
AcDbPolyline
90
20
70
1
43
0.0
10
29.445369243621826
20
50.400052070617683
10
29.445369243621826
20
53.499555587768562
10
28.644766807556152
20
53.499555587768562
10
28.644766807556152
20
54.499654769897468
10
14.645209312438965
20
54.499654769897468
10
14.645209312438965
20
53.499555587768562
10
13.845947980880737
20
53.499555587768562
10
13.845947980880737
20
50.400052070617683
10
14.645209312438965
20
50.400052070617683
10
14.645209312438965
20
44.599947929382331
10
13.845947980880737
20
44.599947929382331
10
13.845947980880737
20
41.499447822570808
10
14.645209312438965
20
41.499447822570808
10
14.645209312438965
20
40.500349998474128
10
28.644766807556152
20
40.500349998474128
10
28.644766807556152
20
41.499447822570808
10
29.445369243621826
20
41.499447822570808
10
29.445369243621826
20
44.599947929382331
10
28.644766807556152
20
44.599947929382331
10
28.644766807556152
20
50.400052070617683
0
LWPOLYLINE
5
118
100
AcDbEntity
8
0
100
AcDbPolyline
90
20
70
1
43
0.0
10
29.445369243621826
20
69.40006256103517
10
29.445369243621826
20
72.499566078186049
10
28.644766807556152
20
72.499566078186049
10
28.644766807556152
20
73.499665260314956
10
14.645209312438965
20
73.499665260314956
10
14.645209312438965
20
72.499566078186049
10
13.845947980880737
20
72.499566078186049
10
13.845947980880737
20
69.40006256103517
10
14.645209312438965
20
69.40006256103517
10
14.645209312438965
20
63.599963188171394
10
13.845947980880737
20
63.599963188171394
10
13.845947980880737
20
60.499458312988288
10
14.645209312438965
20
60.499458312988288
10
14.645209312438965
20
59.500360488891609
10
28.644766807556152
20
59.500360488891609
10
28.644766807556152
20
60.499458312988288
10
29.445369243621826
20
60.499458312988288
10
29.445369243621826
20
63.599963188171394
10
28.644766807556152
20
63.599963188171394
10
28.644766807556152
20
69.40006256103517
0
LWPOLYLINE
5
119
100
AcDbEntity
8
0
100
AcDbPolyline
90
20
70
1
43
0.0
10
9.6447533369064331
20
6.5999227762222397
10
9.6447533369064331
20
12.400026321411143
10
10.445355176925659
20
12.400026321411143
10
10.445355176925659
20
15.499528646469127
10
9.6447533369064331
20
15.499528646469127
10
9.6447533369064331
20
16.499627828598033
10
-4.3548041582107544
20
16.499627828598033
10
-4.3548041582107544
20
15.499528646469127
10
-5.1540642976760864
20
15.499528646469127
10
-5.1540642976760864
20
12.400026321411143
10
-4.3548041582107544
20
12.400026321411143
10
-4.3548041582107544
20
6.5999227762222397
10
-5.1540642976760864
20
6.5999227762222397
10
-5.1540642976760864
20
3.4994211792945973
10
-4.3548041582107544
20
3.4994211792945973
10
-4.3548041582107544
20
2.5003206729889027
10
9.6447533369064331
20
2.5003206729889027
10
9.6447533369064331
20
3.4994211792945973
10
10.445355176925659
20
3.4994211792945973
10
10.445355176925659
20
6.5999227762222397
0
LWPOLYLINE
5
120
100
AcDbEntity
8
0
100
AcDbPolyline
90
20
70
1
43
0.0
10
10.445355176925659
20
31.400039196014419
10
10.445355176925659
20
34.499542713165297
10
9.6447533369064331
20
34.499542713165297
10
9.6447533369064331
20
35.499641895294204
10
-4.3548041582107544
20
35.499641895294204
10
-4.3548041582107544
20
34.499542713165297
10
-5.1540642976760864
20
34.499542713165297
10
-5.1540642976760864
20
31.400039196014419
10
-4.3548041582107544
20
31.400039196014419
10
-4.3548041582107544
20
25.599935054779067
10
-5.1540642976760864
20
25.599935054779067
10
-5.1540642976760864
20
22.499434947967544
10
-4.3548041582107544
20
22.499434947967544
10
-4.3548041582107544
20
21.500334739685073
10
9.6447533369064331
20
21.500334739685073
10
9.6447533369064331
20
22.499434947967544
10
10.445355176925659
20
22.499434947967544
10
10.445355176925659
20
25.599935054779067
10
9.6447533369064331
20
25.599935054779067
10
9.6447533369064331
20
31.400039196014419
0
LWPOLYLINE
5
121
100
AcDbEntity
8
0
100
AcDbPolyline
90
20
70
1
43
0.0
10
10.445355176925659
20
50.400052070617683
10
10.445355176925659
20
53.499555587768562
10
9.6447533369064331
20
53.499555587768562
10
9.6447533369064331
20
54.499654769897468
10
-4.3548041582107544
20
54.499654769897468
10
-4.3548041582107544
20
53.499555587768562
10
-5.1540642976760864
20
53.499555587768562
10
-5.1540642976760864
20
50.400052070617683
10
-4.3548041582107544
20
50.400052070617683
10
-4.3548041582107544
20
44.599947929382331
10
-5.1540642976760864
20
44.599947929382331
10
-5.1540642976760864
20
41.499447822570808
10
-4.3548041582107544
20
41.499447822570808
10
-4.3548041582107544
20
40.500349998474128
10
9.6447533369064331
20
40.500349998474128
10
9.6447533369064331
20
41.499447822570808
10
10.445355176925659
20
41.499447822570808
10
10.445355176925659
20
44.599947929382331
10
9.6447533369064331
20
44.599947929382331
10
9.6447533369064331
20
50.400052070617683
0
LWPOLYLINE
5
122
100
AcDbEntity
8
0
100
AcDbPolyline
90
20
70
1
43
0.0
10
10.445355176925659
20
69.40006256103517
10
10.445355176925659
20
72.499566078186049
10
9.6447533369064331
20
72.499566078186049
10
9.6447533369064331
20
73.499665260314956
10
-4.3548041582107544
20
73.499665260314956
10
-4.3548041582107544
20
72.499566078186049
10
-5.1540642976760864
20
72.499566078186049
10
-5.1540642976760864
20
69.40006256103517
10
-4.3548041582107544
20
69.40006256103517
10
-4.3548041582107544
20
63.599963188171394
10
-5.1540642976760864
20
63.599963188171394
10
-5.1540642976760864
20
60.499458312988288
10
-4.3548041582107544
20
60.499458312988288
10
-4.3548041582107544
20
59.500360488891609
10
9.6447533369064331
20
59.500360488891609
10
9.6447533369064331
20
60.499458312988288
10
10.445355176925659
20
60.499458312988288
10
10.445355176925659
20
63.599963188171394
10
9.6447533369064331
20
63.599963188171394
10
9.6447533369064331
20
69.40006256103517
0
LWPOLYLINE
5
123
100
AcDbEntity
8
0
100
AcDbPolyline
90
20
70
1
43
0.0
10
-9.3552589416503906
20
6.5999227762222397
10
-9.3552589416503906
20
12.400026321411143
10
-8.5546588897705078
20
12.400026321411143
10
-8.5546588897705078
20
15.499528646469127
10
-9.3552589416503906
20
15.499528646469127
10
-9.3552589416503906
20
16.499627828598033
10
-23.354816436767578
20
16.499627828598033
10
-23.354816436767578
20
15.499528646469127
10
-24.154078960418701
20
15.499528646469127
10
-24.154078960418701
20
12.400026321411143
10
-23.354816436767578
20
12.400026321411143
10
-23.354816436767578
20
6.5999227762222397
10
-24.154078960418701
20
6.5999227762222397
10
-24.154078960418701
20
3.4994211792945973
10
-23.354816436767578
20
3.4994211792945973
10
-23.354816436767578
20
2.5003206729889027
10
-9.3552589416503906
20
2.5003206729889027
10
-9.3552589416503906
20
3.4994211792945973
10
-8.5546588897705078
20
3.4994211792945973
10
-8.5546588897705078
20
6.5999227762222397
0
LWPOLYLINE
5
124
100
AcDbEntity
8
0
100
AcDbPolyline
90
20
70
1
43
0.0
10
-8.5546588897705078
20
31.400039196014419
10
-8.5546588897705078
20
34.499542713165297
10
-9.3552589416503906
20
34.499542713165297
10
-9.3552589416503906
20
35.499641895294204
10
-23.354816436767578
20
35.499641895294204
10
-23.354816436767578
20
34.499542713165297
10
-24.154078960418701
20
34.499542713165297
10
-24.154078960418701
20
31.400039196014419
10
-23.354816436767578
20
31.400039196014419
10
-23.354816436767578
20
25.599935054779067
10
-24.154078960418701
20
25.599935054779067
10
-24.154078960418701
20
22.499434947967544
10
-23.354816436767578
20
22.499434947967544
10
-23.354816436767578
20
21.500334739685073
10
-9.3552589416503906
20
21.500334739685073
10
-9.3552589416503906
20
22.499434947967544
10
-8.5546588897705078
20
22.499434947967544
10
-8.5546588897705078
20
25.599935054779067
10
-9.3552589416503906
20
25.599935054779067
10
-9.3552589416503906
20
31.400039196014419
0
LWPOLYLINE
5
125
100
AcDbEntity
8
0
100
AcDbPolyline
90
20
70
1
43
0.0
10
-8.5546588897705078
20
50.400052070617683
10
-8.5546588897705078
20
53.499555587768562
10
-9.3552589416503906
20
53.499555587768562
10
-9.3552589416503906
20
54.499654769897468
10
-23.354816436767578
20
54.499654769897468
10
-23.354816436767578
20
53.499555587768562
10
-24.154078960418701
20
53.499555587768562
10
-24.154078960418701
20
50.400052070617683
10
-23.354816436767578
20
50.400052070617683
10
-23.354816436767578
20
44.599947929382331
10
-24.154078960418701
20
44.599947929382331
10
-24.154078960418701
20
41.499447822570808
10
-23.354816436767578
20
41.499447822570808
10
-23.354816436767578
20
40.500349998474128
10
-9.3552589416503906
20
40.500349998474128
10
-9.3552589416503906
20
41.499447822570808
10
-8.5546588897705078
20
41.499447822570808
10
-8.5546588897705078
20
44.599947929382331
10
-9.3552589416503906
20
44.599947929382331
10
-9.3552589416503906
20
50.400052070617683
0
LWPOLYLINE
5
126
100
AcDbEntity
8
0
100
AcDbPolyline
90
20
70
1
43
0.0
10
-8.5546588897705078
20
69.40006256103517
10
-8.5546588897705078
20
72.499566078186049
10
-9.3552589416503906
20
72.499566078186049
10
-9.3552589416503906
20
73.499665260314956
10
-23.354816436767578
20
73.499665260314956
10
-23.354816436767578
20
72.499566078186049
10
-24.154078960418701
20
72.499566078186049
10
-24.154078960418701
20
69.40006256103517
10
-23.354816436767578
20
69.40006256103517
10
-23.354816436767578
20
63.599963188171394
10
-24.154078960418701
20
63.599963188171394
10
-24.154078960418701
20
60.499458312988288
10
-23.354816436767578
20
60.499458312988288
10
-23.354816436767578
20
59.500360488891609
10
-9.3552589416503906
20
59.500360488891609
10
-9.3552589416503906
20
60.499458312988288
10
-8.5546588897705078
20
60.499458312988288
10
-8.5546588897705078
20
63.599963188171394
10
-9.3552589416503906
20
63.599963188171394
10
-9.3552589416503906
20
69.40006256103517
0
LWPOLYLINE
5
127
100
AcDbEntity
8
0
100
AcDbPolyline
90
20
70
1
43
0.0
10
-27.554671764373779
20
12.400026321411143
10
-27.554671764373779
20
15.499528646469127
10
-28.355271816253662
20
15.499528646469127
10
-28.355271816253662
20
16.499627828598033
10
-42.354826927185059
20
16.499627828598033
10
-42.354826927185059
20
15.499528646469127
10
-43.154091835021973
20
15.499528646469127
10
-43.154091835021973
20
12.400026321411143
10
-42.354826927185059
20
12.400026321411143
10
-42.354826927185059
20
6.5999227762222397
10
-43.154091835021973
20
6.5999227762222397
10
-43.154091835021973
20
3.4994211792945973
10
-42.354826927185059
20
3.4994211792945973
10
-42.354826927185059
20
2.5003206729889027
10
-28.355271816253662
20
2.5003206729889027
10
-28.355271816253662
20
3.4994211792945973
10
-27.554671764373779
20
3.4994211792945973
10
-27.554671764373779
20
6.5999227762222397
10
-28.355271816253662
20
6.5999227762222397
10
-28.355271816253662
20
12.400026321411143
0
LWPOLYLINE
5
128
100
AcDbEntity
8
0
100
AcDbPolyline
90
20
70
1
43
0.0
10
-27.554671764373779
20
31.400039196014419
10
-27.554671764373779
20
34.499542713165297
10
-28.355271816253662
20
34.499542713165297
10
-28.355271816253662
20
35.499641895294204
10
-42.354826927185059
20
35.499641895294204
10
-42.354826927185059
20
34.499542713165297
10
-43.154091835021973
20
34.499542713165297
10
-43.154091835021973
20
31.400039196014419
10
-42.354826927185059
20
31.400039196014419
10
-42.354826927185059
20
25.599935054779067
10
-43.154091835021973
20
25.599935054779067
10
-43.154091835021973
20
22.499434947967544
10
-42.354826927185059
20
22.499434947967544
10
-42.354826927185059
20
21.500334739685073
10
-28.355271816253662
20
21.500334739685073
10
-28.355271816253662
20
22.499434947967544
10
-27.554671764373779
20
22.499434947967544
10
-27.554671764373779
20
25.599935054779067
10
-28.355271816253662
20
25.599935054779067
10
-28.355271816253662
20
31.400039196014419
0
LWPOLYLINE
5
129
100
AcDbEntity
8
0
100
AcDbPolyline
90
20
70
1
43
0.0
10
-27.554671764373779
20
50.400052070617683
10
-27.554671764373779
20
53.499555587768562
10
-28.355271816253662
20
53.499555587768562
10
-28.355271816253662
20
54.499654769897468
10
-42.354826927185059
20
54.499654769897468
10
-42.354826927185059
20
53.499555587768562
10
-43.154091835021973
20
53.499555587768562
10
-43.154091835021973
20
50.400052070617683
10
-42.354826927185059
20
50.400052070617683
10
-42.354826927185059
20
44.599947929382331
10
-43.154091835021973
20
44.599947929382331
10
-43.154091835021973
20
41.499447822570808
10
-42.354826927185059
20
41.499447822570808
10
-42.354826927185059
20
40.500349998474128
10
-28.355271816253662
20
40.500349998474128
10
-28.355271816253662
20
41.499447822570808
10
-27.554671764373779
20
41.499447822570808
10
-27.554671764373779
20
44.599947929382331
10
-28.355271816253662
20
44.599947929382331
10
-28.355271816253662
20
50.400052070617683
0
LWPOLYLINE
5
130
100
AcDbEntity
8
0
100
AcDbPolyline
90
20
70
1
43
0.0
10
-27.554671764373779
20
69.40006256103517
10
-27.554671764373779
20
72.499566078186049
10
-28.355271816253662
20
72.499566078186049
10
-28.355271816253662
20
73.499665260314956
10
-42.354826927185059
20
73.499665260314956
10
-42.354826927185059
20
72.499566078186049
10
-43.154091835021973
20
72.499566078186049
10
-43.154091835021973
20
69.40006256103517
10
-42.354826927185059
20
69.40006256103517
10
-42.354826927185059
20
63.599963188171394
10
-43.154091835021973
20
63.599963188171394
10
-43.154091835021973
20
60.499458312988288
10
-42.354826927185059
20
60.499458312988288
10
-42.354826927185059
20
59.500360488891609
10
-28.355271816253662
20
59.500360488891609
10
-28.355271816253662
20
60.499458312988288
10
-27.554671764373779
20
60.499458312988288
10
-27.554671764373779
20
63.599963188171394
10
-28.355271816253662
20
63.599963188171394
10
-28.355271816253662
20
69.40006256103517
0
LWPOLYLINE
5
131
100
AcDbEntity
8
0
100
AcDbPolyline
90
20
70
1
43
0.0
10
-46.554684638977051
20
12.400026321411143
10
-46.554684638977051
20
15.499528646469127
10
-47.355284690856934
20
15.499528646469127
10
-47.355284690856934
20
16.499627828598033
10
-61.354842185974121
20
16.499627828598033
10
-61.354842185974121
20
15.499528646469127
10
-62.154102325439453
20
15.499528646469127
10
-62.154102325439453
20
12.400026321411143
10
-61.354842185974121
20
12.400026321411143
10
-61.354842185974121
20
6.5999227762222397
10
-62.154102325439453
20
6.5999227762222397
10
-62.154102325439453
20
3.4994211792945973
10
-61.354842185974121
20
3.4994211792945973
10
-61.354842185974121
20
2.5003206729889027
10
-47.355284690856934
20
2.5003206729889027
10
-47.355284690856934
20
3.4994211792945973
10
-46.554684638977051
20
3.4994211792945973
10
-46.554684638977051
20
6.5999227762222397
10
-47.355284690856934
20
6.5999227762222397
10
-47.355284690856934
20
12.400026321411143
0
LWPOLYLINE
5
132
100
AcDbEntity
8
0
100
AcDbPolyline
90
20
70
1
43
0.0
10
-46.554684638977051
20
31.400039196014419
10
-46.554684638977051
20
34.499542713165297
10
-47.355284690856934
20
34.499542713165297
10
-47.355284690856934
20
35.499641895294204
10
-61.354842185974121
20
35.499641895294204
10
-61.354842185974121
20
34.499542713165297
10
-62.154102325439453
20
34.499542713165297
10
-62.154102325439453
20
31.400039196014419
10
-61.354842185974121
20
31.400039196014419
10
-61.354842185974121
20
25.599935054779067
10
-62.154102325439453
20
25.599935054779067
10
-62.154102325439453
20
22.499434947967544
10
-61.354842185974121
20
22.499434947967544
10
-61.354842185974121
20
21.500334739685073
10
-47.355284690856934
20
21.500334739685073
10
-47.355284690856934
20
22.499434947967544
10
-46.554684638977051
20
22.499434947967544
10
-46.554684638977051
20
25.599935054779067
10
-47.355284690856934
20
25.599935054779067
10
-47.355284690856934
20
31.400039196014419
0
LWPOLYLINE
5
133
100
AcDbEntity
8
0
100
AcDbPolyline
90
20
70
1
43
0.0
10
-46.554684638977051
20
50.400052070617683
10
-46.554684638977051
20
53.499555587768562
10
-47.355284690856934
20
53.499555587768562
10
-47.355284690856934
20
54.499654769897468
10
-61.354842185974121
20
54.499654769897468
10
-61.354842185974121
20
53.499555587768562
10
-62.154102325439453
20
53.499555587768562
10
-62.154102325439453
20
50.400052070617683
10
-61.354842185974121
20
50.400052070617683
10
-61.354842185974121
20
44.599947929382331
10
-62.154102325439453
20
44.599947929382331
10
-62.154102325439453
20
41.499447822570808
10
-61.354842185974121
20
41.499447822570808
10
-61.354842185974121
20
40.500349998474128
10
-47.355284690856934
20
40.500349998474128
10
-47.355284690856934
20
41.499447822570808
10
-46.554684638977051
20
41.499447822570808
10
-46.554684638977051
20
44.599947929382331
10
-47.355284690856934
20
44.599947929382331
10
-47.355284690856934
20
50.400052070617683
0
LWPOLYLINE
5
134
100
AcDbEntity
8
0
100
AcDbPolyline
90
20
70
1
43
0.0
10
-46.554684638977051
20
69.40006256103517
10
-46.554684638977051
20
72.499566078186049
10
-47.355284690856934
20
72.499566078186049
10
-47.355284690856934
20
73.499665260314956
10
-61.354842185974121
20
73.499665260314956
10
-61.354842185974121
20
72.499566078186049
10
-62.154102325439453
20
72.499566078186049
10
-62.154102325439453
20
69.40006256103517
10
-61.354842185974121
20
69.40006256103517
10
-61.354842185974121
20
63.599963188171394
10
-62.154102325439453
20
63.599963188171394
10
-62.154102325439453
20
60.499458312988288
10
-61.354842185974121
20
60.499458312988288
10
-61.354842185974121
20
59.500360488891609
10
-47.355284690856934
20
59.500360488891609
10
-47.355284690856934
20
60.499458312988288
10
-46.554684638977051
20
60.499458312988288
10
-46.554684638977051
20
63.599963188171394
10
-47.355284690856934
20
63.599963188171394
10
-47.355284690856934
20
69.40006256103517
0
LWPOLYLINE
5
135
100
AcDbEntity
8
0
100
AcDbPolyline
90
20
70
1
43
0.0
10
162.44544982910156
20
88.400077819824233
10
162.44544982910156
20
91.499586105346694
10
161.64485931396484
20
91.499586105346694
10
161.64485931396484
20
92.4996852874756
10
147.64529228210449
20
92.4996852874756
10
147.64529228210449
20
91.499586105346694
10
146.84603691101074
20
91.499586105346694
10
146.84603691101074
20
88.400077819824233
10
147.64529228210449
20
88.400077819824233
10
147.64529228210449
20
82.599973678588881
10
146.84603691101074
20
82.599973678588881
10
146.84603691101074
20
79.499473571777358
10
147.64529228210449
20
79.499473571777358
10
147.64529228210449
20
78.500375747680678
10
161.64485931396484
20
78.500375747680678
10
161.64485931396484
20
79.499473571777358
10
162.44544982910156
20
79.499473571777358
10
162.44544982910156
20
82.599973678588881
10
161.64485931396484
20
82.599973678588881
10
161.64485931396484
20
88.400077819824233
0
LWPOLYLINE
5
136
100
AcDbEntity
8
0
100
AcDbPolyline
90
20
70
1
43
0.0
10
143.44545364379883
20
88.400077819824233
10
143.44545364379883
20
91.499586105346694
10
142.64483451843262
20
91.499586105346694
10
142.64483451843262
20
92.4996852874756
10
128.64527702331543
20
92.4996852874756
10
128.64527702331543
20
91.499586105346694
10
127.84602165222168
20
91.499586105346694
10
127.84602165222168
20
88.400077819824233
10
128.64527702331543
20
88.400077819824233
10
128.64527702331543
20
82.599973678588881
10
127.84602165222168
20
82.599973678588881
10
127.84602165222168
20
79.499473571777358
10
128.64527702331543
20
79.499473571777358
10
128.64527702331543
20
78.500375747680678
10
142.64483451843262
20
78.500375747680678
10
142.64483451843262
20
79.499473571777358
10
143.44545364379883
20
79.499473571777358
10
143.44545364379883
20
82.599973678588881
10
142.64483451843262
20
82.599973678588881
10
142.64483451843262
20
88.400077819824233
0
LWPOLYLINE
5
137
100
AcDbEntity
8
0
100
AcDbPolyline
90
20
70
1
43
0.0
10
124.44543838500977
20
88.400077819824233
10
124.44543838500977
20
91.499586105346694
10
123.64482879638672
20
91.499586105346694
10
123.64482879638672
20
92.4996852874756
10
109.64527130126953
20
92.4996852874756
10
109.64527130126953
20
91.499586105346694
10
108.84601593017578
20
91.499586105346694
10
108.84601593017578
20
88.400077819824233
10
109.64527130126953
20
88.400077819824233
10
109.64527130126953
20
82.599973678588881
10
108.84601593017578
20
82.599973678588881
10
108.84601593017578
20
79.499473571777358
10
109.64527130126953
20
79.499473571777358
10
109.64527130126953
20
78.500375747680678
10
123.64482879638672
20
78.500375747680678
10
123.64482879638672
20
79.499473571777358
10
124.44543838500977
20
79.499473571777358
10
124.44543838500977
20
82.599973678588881
10
123.64482879638672
20
82.599973678588881
10
123.64482879638672
20
88.400077819824233
0
LWPOLYLINE
5
138
100
AcDbEntity
8
0
100
AcDbPolyline
90
20
70
1
43
0.0
10
105.4454231262207
20
88.400077819824233
10
105.4454231262207
20
91.499586105346694
10
104.64482307434082
20
91.499586105346694
10
104.64482307434082
20
92.4996852874756
10
90.645265579223633
20
92.4996852874756
10
90.645265579223633
20
91.499586105346694
10
89.846000671386719
20
91.499586105346694
10
89.846000671386719
20
88.400077819824233
10
90.645265579223633
20
88.400077819824233
10
90.645265579223633
20
82.599973678588881
10
89.846000671386719
20
82.599973678588881
10
89.846000671386719
20
79.499473571777358
10
90.645265579223633
20
79.499473571777358
10
90.645265579223633
20
78.500375747680678
10
104.64482307434082
20
78.500375747680678
10
104.64482307434082
20
79.499473571777358
10
105.4454231262207
20
79.499473571777358
10
105.4454231262207
20
82.599973678588881
10
104.64482307434082
20
82.599973678588881
10
104.64482307434082
20
88.400077819824233
0
LWPOLYLINE
5
139
100
AcDbEntity
8
0
100
AcDbPolyline
90
20
70
1
43
0.0
10
86.445407867431641
20
88.400077819824233
10
86.445407867431641
20
91.499586105346694
10
85.644807815551758
20
91.499586105346694
10
85.644807815551758
20
92.4996852874756
10
71.64525032043457
20
92.4996852874756
10
71.64525032043457
20
91.499586105346694
10
70.845985412597656
20
91.499586105346694
10
70.845985412597656
20
88.400077819824233
10
71.64525032043457
20
88.400077819824233
10
71.64525032043457
20
82.599973678588881
10
70.845985412597656
20
82.599973678588881
10
70.845985412597656
20
79.499473571777358
10
71.64525032043457
20
79.499473571777358
10
71.64525032043457
20
78.500375747680678
10
85.644807815551758
20
78.500375747680678
10
85.644807815551758
20
79.499473571777358
10
86.445407867431641
20
79.499473571777358
10
86.445407867431641
20
82.599973678588881
10
85.644807815551758
20
82.599973678588881
10
85.644807815551758
20
88.400077819824233
0
LWPOLYLINE
5
140
100
AcDbEntity
8
0
100
AcDbPolyline
90
20
70
1
43
0.0
10
67.445387840270996
20
88.400077819824233
10
67.445387840270996
20
91.499586105346694
10
66.644792556762695
20
91.499586105346694
10
66.644792556762695
20
92.4996852874756
10
52.645235061645508
20
92.4996852874756
10
52.645235061645508
20
91.499586105346694
10
51.845974922180176
20
91.499586105346694
10
51.845974922180176
20
88.400077819824233
10
52.645235061645508
20
88.400077819824233
10
52.645235061645508
20
82.599973678588881
10
51.845974922180176
20
82.599973678588881
10
51.845974922180176
20
79.499473571777358
10
52.645235061645508
20
79.499473571777358
10
52.645235061645508
20
78.500375747680678
10
66.644792556762695
20
78.500375747680678
10
66.644792556762695
20
79.499473571777358
10
67.445387840270996
20
79.499473571777358
10
67.445387840270996
20
82.599973678588881
10
66.644792556762695
20
82.599973678588881
10
66.644792556762695
20
88.400077819824233
0
LWPOLYLINE
5
141
100
AcDbEntity
8
0
100
AcDbPolyline
90
20
70
1
43
0.0
10
48.445382118225098
20
88.400077819824233
10
48.445382118225098
20
91.499586105346694
10
47.644782066345215
20
91.499586105346694
10
47.644782066345215
20
92.4996852874756
10
33.645222187042236
20
92.4996852874756
10
33.645222187042236
20
91.499586105346694
10
32.845962047576904
20
91.499586105346694
10
32.845962047576904
20
88.400077819824233
10
33.645222187042236
20
88.400077819824233
10
33.645222187042236
20
82.599973678588881
10
32.845962047576904
20
82.599973678588881
10
32.845962047576904
20
79.499473571777358
10
33.645222187042236
20
79.499473571777358
10
33.645222187042236
20
78.500375747680678
10
47.644782066345215
20
78.500375747680678
10
47.644782066345215
20
79.499473571777358
10
48.445382118225098
20
79.499473571777358
10
48.445382118225098
20
82.599973678588881
10
47.644782066345215
20
82.599973678588881
10
47.644782066345215
20
88.400077819824233
0
LWPOLYLINE
5
142
100
AcDbEntity
8
0
100
AcDbPolyline
90
20
70
1
43
0.0
10
29.445369243621826
20
88.400077819824233
10
29.445369243621826
20
91.499586105346694
10
28.644766807556152
20
91.499586105346694
10
28.644766807556152
20
92.4996852874756
10
14.645209312438965
20
92.4996852874756
10
14.645209312438965
20
91.499586105346694
10
13.845947980880737
20
91.499586105346694
10
13.845947980880737
20
88.400077819824233
10
14.645209312438965
20
88.400077819824233
10
14.645209312438965
20
82.599973678588881
10
13.845947980880737
20
82.599973678588881
10
13.845947980880737
20
79.499473571777358
10
14.645209312438965
20
79.499473571777358
10
14.645209312438965
20
78.500375747680678
10
28.644766807556152
20
78.500375747680678
10
28.644766807556152
20
79.499473571777358
10
29.445369243621826
20
79.499473571777358
10
29.445369243621826
20
82.599973678588881
10
28.644766807556152
20
82.599973678588881
10
28.644766807556152
20
88.400077819824233
0
LWPOLYLINE
5
143
100
AcDbEntity
8
0
100
AcDbPolyline
90
20
70
1
43
0.0
10
10.445355176925659
20
88.400077819824233
10
10.445355176925659
20
91.499586105346694
10
9.6447533369064331
20
91.499586105346694
10
9.6447533369064331
20
92.4996852874756
10
-4.3548041582107544
20
92.4996852874756
10
-4.3548041582107544
20
91.499586105346694
10
-5.1540642976760864
20
91.499586105346694
10
-5.1540642976760864
20
88.400077819824233
10
-4.3548041582107544
20
88.400077819824233
10
-4.3548041582107544
20
82.599973678588881
10
-5.1540642976760864
20
82.599973678588881
10
-5.1540642976760864
20
79.499473571777358
10
-4.3548041582107544
20
79.499473571777358
10
-4.3548041582107544
20
78.500375747680678
10
9.6447533369064331
20
78.500375747680678
10
9.6447533369064331
20
79.499473571777358
10
10.445355176925659
20
79.499473571777358
10
10.445355176925659
20
82.599973678588881
10
9.6447533369064331
20
82.599973678588881
10
9.6447533369064331
20
88.400077819824233
0
LWPOLYLINE
5
144
100
AcDbEntity
8
0
100
AcDbPolyline
90
20
70
1
43
0.0
10
-8.5546588897705078
20
88.400077819824233
10
-8.5546588897705078
20
91.499586105346694
10
-9.3552589416503906
20
91.499586105346694
10
-9.3552589416503906
20
92.4996852874756
10
-23.354816436767578
20
92.4996852874756
10
-23.354816436767578
20
91.499586105346694
10
-24.154078960418701
20
91.499586105346694
10
-24.154078960418701
20
88.400077819824233
10
-23.354816436767578
20
88.400077819824233
10
-23.354816436767578
20
82.599973678588881
10
-24.154078960418701
20
82.599973678588881
10
-24.154078960418701
20
79.499473571777358
10
-23.354816436767578
20
79.499473571777358
10
-23.354816436767578
20
78.500375747680678
10
-9.3552589416503906
20
78.500375747680678
10
-9.3552589416503906
20
79.499473571777358
10
-8.5546588897705078
20
79.499473571777358
10
-8.5546588897705078
20
82.599973678588881
10
-9.3552589416503906
20
82.599973678588881
10
-9.3552589416503906
20
88.400077819824233
0
LWPOLYLINE
5
145
100
AcDbEntity
8
0
100
AcDbPolyline
90
20
70
1
43
0.0
10
-27.554671764373779
20
88.400077819824233
10
-27.554671764373779
20
91.499586105346694
10
-28.355271816253662
20
91.499586105346694
10
-28.355271816253662
20
92.4996852874756
10
-42.354826927185059
20
92.4996852874756
10
-42.354826927185059
20
91.499586105346694
10
-43.154091835021973
20
91.499586105346694
10
-43.154091835021973
20
88.400077819824233
10
-42.354826927185059
20
88.400077819824233
10
-42.354826927185059
20
82.599973678588881
10
-43.154091835021973
20
82.599973678588881
10
-43.154091835021973
20
79.499473571777358
10
-42.354826927185059
20
79.499473571777358
10
-42.354826927185059
20
78.500375747680678
10
-28.355271816253662
20
78.500375747680678
10
-28.355271816253662
20
79.499473571777358
10
-27.554671764373779
20
79.499473571777358
10
-27.554671764373779
20
82.599973678588881
10
-28.355271816253662
20
82.599973678588881
10
-28.355271816253662
20
88.400077819824233
0
LWPOLYLINE
5
146
100
AcDbEntity
8
0
100
AcDbPolyline
90
20
70
1
43
0.0
10
-46.554684638977051
20
88.400077819824233
10
-46.554684638977051
20
91.499586105346694
10
-47.355284690856934
20
91.499586105346694
10
-47.355284690856934
20
92.4996852874756
10
-61.354842185974121
20
92.4996852874756
10
-61.354842185974121
20
91.499586105346694
10
-62.154102325439453
20
91.499586105346694
10
-62.154102325439453
20
88.400077819824233
10
-61.354842185974121
20
88.400077819824233
10
-61.354842185974121
20
82.599973678588881
10
-62.154102325439453
20
82.599973678588881
10
-62.154102325439453
20
79.499473571777358
10
-61.354842185974121
20
79.499473571777358
10
-61.354842185974121
20
78.500375747680678
10
-47.355284690856934
20
78.500375747680678
10
-47.355284690856934
20
79.499473571777358
10
-46.554684638977051
20
79.499473571777358
10
-46.554684638977051
20
82.599973678588881
10
-47.355284690856934
20
82.599973678588881
10
-47.355284690856934
20
88.400077819824233
0
LWPOLYLINE
5
147
100
AcDbEntity
8
0
100
AcDbPolyline
90
20
70
1
43
0.0
10
162.44544982910156
20
12.400026321411143
10
162.44544982910156
20
15.499528646469127
10
161.64485931396484
20
15.499528646469127
10
161.64485931396484
20
16.499627828598033
10
147.64529228210449
20
16.499627828598033
10
147.64529228210449
20
15.499528646469127
10
146.84603691101074
20
15.499528646469127
10
146.84603691101074
20
12.400026321411143
10
147.64529228210449
20
12.400026321411143
10
147.64529228210449
20
6.5999227762222397
10
146.84603691101074
20
6.5999227762222397
10
146.84603691101074
20
3.4994211792945973
10
147.64529228210449
20
3.4994211792945973
10
147.64529228210449
20
2.5003206729889027
10
161.64485931396484
20
2.5003206729889027
10
161.64485931396484
20
3.4994211792945973
10
162.44544982910156
20
3.4994211792945973
10
162.44544982910156
20
6.5999227762222397
10
161.64485931396484
20
6.5999227762222397
10
161.64485931396484
20
12.400026321411143
0
LWPOLYLINE
5
148
100
AcDbEntity
8
0
100
AcDbPolyline
90
20
70
1
43
0.0
10
161.64485931396484
20
25.599935054779067
10
161.64485931396484
20
31.400039196014419
10
162.44544982910156
20
31.400039196014419
10
162.44544982910156
20
34.499542713165297
10
161.64485931396484
20
34.499542713165297
10
161.64485931396484
20
35.499641895294204
10
147.64529228210449
20
35.499641895294204
10
147.64529228210449
20
34.499542713165297
10
146.84603691101074
20
34.499542713165297
10
146.84603691101074
20
31.400039196014419
10
147.64529228210449
20
31.400039196014419
10
147.64529228210449
20
25.599935054779067
10
146.84603691101074
20
25.599935054779067
10
146.84603691101074
20
22.499434947967544
10
147.64529228210449
20
22.499434947967544
10
147.64529228210449
20
21.500334739685073
10
161.64485931396484
20
21.500334739685073
10
161.64485931396484
20
22.499434947967544
10
162.44544982910156
20
22.499434947967544
10
162.44544982910156
20
25.599935054779067
0
LWPOLYLINE
5
149
100
AcDbEntity
8
0
100
AcDbPolyline
90
20
70
1
43
0.0
10
161.64485931396484
20
44.599947929382331
10
161.64485931396484
20
50.400052070617683
10
162.44544982910156
20
50.400052070617683
10
162.44544982910156
20
53.499555587768562
10
161.64485931396484
20
53.499555587768562
10
161.64485931396484
20
54.499654769897468
10
147.64529228210449
20
54.499654769897468
10
147.64529228210449
20
53.499555587768562
10
146.84603691101074
20
53.499555587768562
10
146.84603691101074
20
50.400052070617683
10
147.64529228210449
20
50.400052070617683
10
147.64529228210449
20
44.599947929382331
10
146.84603691101074
20
44.599947929382331
10
146.84603691101074
20
41.499447822570808
10
147.64529228210449
20
41.499447822570808
10
147.64529228210449
20
40.500349998474128
10
161.64485931396484
20
40.500349998474128
10
161.64485931396484
20
41.499447822570808
10
162.44544982910156
20
41.499447822570808
10
162.44544982910156
20
44.599947929382331
0
LWPOLYLINE
5
150
100
AcDbEntity
8
0
100
AcDbPolyline
90
20
70
1
43
0.0
10
161.64485931396484
20
63.599963188171394
10
161.64485931396484
20
69.40006256103517
10
162.44544982910156
20
69.40006256103517
10
162.44544982910156
20
72.499566078186049
10
161.64485931396484
20
72.499566078186049
10
161.64485931396484
20
73.499665260314956
10
147.64529228210449
20
73.499665260314956
10
147.64529228210449
20
72.499566078186049
10
146.84603691101074
20
72.499566078186049
10
146.84603691101074
20
69.40006256103517
10
147.64529228210449
20
69.40006256103517
10
147.64529228210449
20
63.599963188171394
10
146.84603691101074
20
63.599963188171394
10
146.84603691101074
20
60.499458312988288
10
147.64529228210449
20
60.499458312988288
10
147.64529228210449
20
59.500360488891609
10
161.64485931396484
20
59.500360488891609
10
161.64485931396484
20
60.499458312988288
10
162.44544982910156
20
60.499458312988288
10
162.44544982910156
20
63.599963188171394
0
LWPOLYLINE
5
151
100
AcDbEntity
8
0
100
AcDbPolyline
90
20
70
1
43
0.0
10
143.44545364379883
20
12.400026321411143
10
143.44545364379883
20
15.499528646469127
10
142.64483451843262
20
15.499528646469127
10
142.64483451843262
20
16.499627828598033
10
128.64527702331543
20
16.499627828598033
10
128.64527702331543
20
15.499528646469127
10
127.84602165222168
20
15.499528646469127
10
127.84602165222168
20
12.400026321411143
10
128.64527702331543
20
12.400026321411143
10
128.64527702331543
20
6.5999227762222397
10
127.84602165222168
20
6.5999227762222397
10
127.84602165222168
20
3.4994211792945973
10
128.64527702331543
20
3.4994211792945973
10
128.64527702331543
20
2.5003206729889027
10
142.64483451843262
20
2.5003206729889027
10
142.64483451843262
20
3.4994211792945973
10
143.44545364379883
20
3.4994211792945973
10
143.44545364379883
20
6.5999227762222397
10
142.64483451843262
20
6.5999227762222397
10
142.64483451843262
20
12.400026321411143
0
LWPOLYLINE
5
152
100
AcDbEntity
8
0
100
AcDbPolyline
90
20
70
1
43
0.0
10
142.64483451843262
20
25.599935054779067
10
142.64483451843262
20
31.400039196014419
10
143.44545364379883
20
31.400039196014419
10
143.44545364379883
20
34.499542713165297
10
142.64483451843262
20
34.499542713165297
10
142.64483451843262
20
35.499641895294204
10
128.64527702331543
20
35.499641895294204
10
128.64527702331543
20
34.499542713165297
10
127.84602165222168
20
34.499542713165297
10
127.84602165222168
20
31.400039196014419
10
128.64527702331543
20
31.400039196014419
10
128.64527702331543
20
25.599935054779067
10
127.84602165222168
20
25.599935054779067
10
127.84602165222168
20
22.499434947967544
10
128.64527702331543
20
22.499434947967544
10
128.64527702331543
20
21.500334739685073
10
142.64483451843262
20
21.500334739685073
10
142.64483451843262
20
22.499434947967544
10
143.44545364379883
20
22.499434947967544
10
143.44545364379883
20
25.599935054779067
0
LWPOLYLINE
5
153
100
AcDbEntity
8
0
100
AcDbPolyline
90
20
70
1
43
0.0
10
143.44545364379883
20
50.400052070617683
10
143.44545364379883
20
53.499555587768562
10
142.64483451843262
20
53.499555587768562
10
142.64483451843262
20
54.499654769897468
10
128.64527702331543
20
54.499654769897468
10
128.64527702331543
20
53.499555587768562
10
127.84602165222168
20
53.499555587768562
10
127.84602165222168
20
50.400052070617683
10
128.64527702331543
20
50.400052070617683
10
128.64527702331543
20
44.599947929382331
10
127.84602165222168
20
44.599947929382331
10
127.84602165222168
20
41.499447822570808
10
128.64527702331543
20
41.499447822570808
10
128.64527702331543
20
40.500349998474128
10
142.64483451843262
20
40.500349998474128
10
142.64483451843262
20
41.499447822570808
10
143.44545364379883
20
41.499447822570808
10
143.44545364379883
20
44.599947929382331
10
142.64483451843262
20
44.599947929382331
10
142.64483451843262
20
50.400052070617683
0
LWPOLYLINE
5
154
100
AcDbEntity
8
0
100
AcDbPolyline
90
20
70
1
43
0.0
10
143.44545364379883
20
69.40006256103517
10
143.44545364379883
20
72.499566078186049
10
142.64483451843262
20
72.499566078186049
10
142.64483451843262
20
73.499665260314956
10
128.64527702331543
20
73.499665260314956
10
128.64527702331543
20
72.499566078186049
10
127.84602165222168
20
72.499566078186049
10
127.84602165222168
20
69.40006256103517
10
128.64527702331543
20
69.40006256103517
10
128.64527702331543
20
63.599963188171394
10
127.84602165222168
20
63.599963188171394
10
127.84602165222168
20
60.499458312988288
10
128.64527702331543
20
60.499458312988288
10
128.64527702331543
20
59.500360488891609
10
142.64483451843262
20
59.500360488891609
10
142.64483451843262
20
60.499458312988288
10
143.44545364379883
20
60.499458312988288
10
143.44545364379883
20
63.599963188171394
10
142.64483451843262
20
63.599963188171394
10
142.64483451843262
20
69.40006256103517
0
LWPOLYLINE
5
155
100
AcDbEntity
8
0
100
AcDbPolyline
90
20
70
1
43
0.0
10
124.44543838500977
20
12.400026321411143
10
124.44543838500977
20
15.499528646469127
10
123.64482879638672
20
15.499528646469127
10
123.64482879638672
20
16.499627828598033
10
109.64527130126953
20
16.499627828598033
10
109.64527130126953
20
15.499528646469127
10
108.84601593017578
20
15.499528646469127
10
108.84601593017578
20
12.400026321411143
10
109.64527130126953
20
12.400026321411143
10
109.64527130126953
20
6.5999227762222397
10
108.84601593017578
20
6.5999227762222397
10
108.84601593017578
20
3.4994211792945973
10
109.64527130126953
20
3.4994211792945973
10
109.64527130126953
20
2.5003206729889027
10
123.64482879638672
20
2.5003206729889027
10
123.64482879638672
20
3.4994211792945973
10
124.44543838500977
20
3.4994211792945973
10
124.44543838500977
20
6.5999227762222397
10
123.64482879638672
20
6.5999227762222397
10
123.64482879638672
20
12.400026321411143
0
LWPOLYLINE
5
156
100
AcDbEntity
8
0
100
AcDbPolyline
90
56
70
1
43
0.0
10
164.14510726928711
20
2.2860001027584254
10
164.14510726928711
20
92.713994979858413
10
164.12843704223633
20
92.989549636840835
10
164.07867431640625
20
93.261079788208022
10
163.99656295776367
20
93.524627685546889
10
163.88326644897461
20
93.776359558105483
10
163.74044418334961
20
94.012594223022475
10
163.57021331787109
20
94.229898452758803
10
163.37499618530273
20
94.425096511840835
10
163.15771102905273
20
94.595346450805678
10
162.92146682739258
20
94.73814964294435
10
162.66973495483398
20
94.851446151733413
10
162.40617752075195
20
94.933576583862319
10
162.13466644287109
20
94.983329772949233
10
161.85911178588867
20
95.000000000000014
10
-61.568894386291504
20
95.000000000000014
10
-61.844439506530762
20
94.983329772949233
10
-62.115969657897949
20
94.933576583862319
10
-62.379522323608398
20
94.851446151733413
10
-62.631254196166992
20
94.73814964294435
10
-62.867493629455566
20
94.595346450805678
10
-63.084793090820312
20
94.425096511840835
10
-63.279991149902344
20
94.229898452758803
10
-63.450236320495605
20
94.012594223022475
10
-63.593049049377441
20
93.776359558105483
10
-63.706340789794922
20
93.524627685546889
10
-63.788466453552246
20
93.261079788208022
10
-63.838229179382324
20
92.989549636840835
10
-63.854899406433105
20
92.713994979858413
10
-63.854899406433105
20
2.2860001027584254
10
-63.838229179382324
20
2.0104531943798181
10
-63.788466453552246
20
1.7389243841171378
10
-63.706340789794922
20
1.4753733575344199
10
-63.593049049377441
20
1.2236428260803336
10
-63.450236320495605
20
0.98740398883820713
10
-63.279991149902344
20
0.77010162174702823
10
-63.084793090820312
20
0.57490445673466861
10
-62.867493629455566
20
0.40465887635947412
10
-62.631254196166992
20
0.26184752583504861
10
-62.379522323608398
20
0.1485528703779096
10
-62.115969657897949
20
0.066427006386231821
10
-61.844439506530762
20
0.016667513409640816
10
-61.568894386291504
20
1.090664017433518e-13
10
161.85911178588867
20
1.090664017433518e-13
10
162.13466644287109
20
0.016667513409640827
10
162.40617752075195
20
0.066427006386231835
10
162.66973495483398
20
0.14855287037790957
10
162.92146682739258
20
0.26184752583504861
10
163.15771102905273
20
0.40465887635947412
10
163.37499618530273
20
0.57490445673466861
10
163.57021331787109
20
0.77010162174702823
10
163.74044418334961
20
0.98740398883820713
10
163.88326644897461
20
1.2236428260803336
10
163.99656295776367
20
1.4753733575344199
10
164.07867431640625
20
1.7389243841171378
10
164.12843704223633
20
2.0104531943798181
0
LWPOLYLINE
5
157
100
AcDbEntity
8
0
100
AcDbPolyline
90
20
70
1
43
0.0
10
14.645209312438965
20
6.5999227762222397
10
14.645209312438965
20
12.400026321411143
10
13.845947980880737
20
12.400026321411143
10
13.845947980880737
20
15.499528646469127
10
14.645209312438965
20
15.499528646469127
10
14.645209312438965
20
16.499627828598033
10
85.644807815551758
20
16.499627828598033
10
85.644807815551758
20
15.499528646469127
10
86.445407867431641
20
15.499528646469127
10
86.445407867431641
20
12.400026321411143
10
85.644807815551758
20
12.400026321411143
10
85.644807815551758
20
6.5999227762222397
10
86.445407867431641
20
6.5999227762222397
10
86.445407867431641
20
3.4994211792945973
10
85.644807815551758
20
3.4994211792945973
10
85.644807815551758
20
2.5003206729889027
10
14.645209312438965
20
2.5003206729889027
10
14.645209312438965
20
3.4994211792945973
10
13.845947980880737
20
3.4994211792945973
10
13.845947980880737
20
6.5999227762222397
0
LWPOLYLINE
5
158
100
AcDbEntity
8
0
100
AcDbPolyline
90
49
70
1
43
0.0
10
146.38481140136719
20
19.159826040267955
10
146.35418891906738
20
19.317048788070689
10
146.3037109375
20
19.469064474105846
10
146.23422622680664
20
19.613379240036021
10
146.14684104919434
20
19.747619628906261
10
146.04301452636719
20
19.86958384513856
10
145.9244441986084
20
19.977270364761363
10
145.79306602478027
20
20.068910121917739
10
145.65104484558105
20
20.142996311187758
10
145.50073623657227
20
20.198314189910903
10
145.34457206726074
20
20.233957767486586
10
145.18513679504395
20
20.249338150024428
10
145.02504348754883
20
20.244204998016372
10
144.86691474914551
20
20.218641757965102
10
144.71336364746094
20
20.173068046569838
10
144.56689834594727
20
20.108230113983169
10
144.429931640625
20
20.025196075439467
10
144.30468559265137
20
19.925329685211192
10
144.19326782226562
20
19.810266494750987
10
144.09746170043945
20
19.68190073966981
10
144.01885986328125
20
19.542335271835338
10
143.95875930786133
20
19.393866062164317
10
143.91812324523926
20
19.238929748535167
10
143.89764785766602
20
19.080069065094005
10
143.89764785766602
20
18.919893503189098
10
143.91812324523926
20
18.761032819747935
10
143.95875930786133
20
18.606096506118785
10
144.01885986328125
20
18.457626104354869
10
144.09746170043945
20
18.318061828613292
10
144.19326782226562
20
18.189696073532115
10
144.30468559265137
20
18.07463288307191
10
144.429931640625
20
17.974766492843639
10
144.56689834594727
20
17.891731262207042
10
144.71336364746094
20
17.826894521713267
10
144.86691474914551
20
17.781320810318004
10
145.02504348754883
20
17.755756378173839
10
145.18513679504395
20
17.750624418258678
10
145.34457206726074
20
17.766002416610728
10
145.50073623657227
20
17.801645994186412
10
145.65104484558105
20
17.856963872909557
10
145.79306602478027
20
17.931053638458263
10
145.9244441986084
20
18.022692203521739
10
146.04301452636719
20
18.130377531051646
10
146.14684104919434
20
18.252342939376842
10
146.23422622680664
20
18.386583328247081
10
146.3037109375
20
18.530896902084361
10
146.35418891906738
20
18.682912588119517
10
146.38481140136719
20
18.840134143829356
10
146.39506340026855
20
18.999980688095103
0
LWPOLYLINE
5
159
100
AcDbEntity
8
0
100
AcDbPolyline
90
49
70
1
43
0.0
10
-43.615317344665527
20
76.15986824035646
10
-43.645939826965332
20
76.317086219787612
10
-43.696413040161133
20
76.469101905822768
10
-43.765907287597656
20
76.613421440124526
10
-43.853292465209961
20
76.74766063690187
10
-43.957118988037109
20
76.869621276855483
10
-44.07569408416748
20
76.977310180664077
10
-44.207067489624023
20
77.068948745727553
10
-44.349079132080078
20
77.143034934997573
10
-44.499397277832031
20
77.198357582092299
10
-44.655556678771973
20
77.233996391296401
10
-44.81499195098877
20
77.249374389648452
10
-44.975085258483887
20
77.244238853454604
10
-45.133209228515625
20
77.218680381774917
10
-45.286765098571777
20
77.173104286193862
10
-45.433230400085449
20
77.108268737792983
10
-45.570201873779297
20
77.025237083435073
10
-45.695433616638184
20
76.92536830902101
10
-45.806865692138672
20
76.810302734375014
10
-45.902667045593262
20
76.681938171386733
10
-45.981268882751465
20
76.54237270355226
10
-46.041378974914551
20
76.393904685974135
10
-46.082005500793457
20
76.238970756530776
10
-46.102490425109863
20
76.080107688903823
10
-46.102490425109863
20
75.919928550720229
10
-46.082005500793457
20
75.761070251464858
10
-46.041378974914551
20
75.606131553649917
10
-45.981268882751465
20
75.457663536071792
10
-45.902667045593262
20
75.318102836608901
10
-45.806865692138672
20
75.18973827362062
10
-45.695433616638184
20
75.074667930603042
10
-45.570201873779297
20
74.974799156188979
10
-45.433230400085449
20
74.891772270202651
10
-45.286765098571777
20
74.826936721801772
10
-45.133209228515625
20
74.781355857849135
10
-44.975085258483887
20
74.755797386169448
10
-44.81499195098877
20
74.750666618347182
10
-44.655556678771973
20
74.766044616699233
10
-44.499397277832031
20
74.801683425903335
10
-44.349079132080078
20
74.857001304626479
10
-44.207067489624023
20
74.931092262268081
10
-44.07569408416748
20
75.022730827331557
10
-43.957118988037109
20
75.130419731140151
10
-43.853292465209961
20
75.252380371093764
10
-43.765907287597656
20
75.386619567871108
10
-43.696413040161133
20
75.530939102172866
10
-43.645939826965332
20
75.682954788208022
10
-43.615317344665527
20
75.840172767639174
10
-43.605055809020996
20
76.000022888183608
0
LWPOLYLINE
5
160
100
AcDbEntity
8
0
100
AcDbPolyline
90
49
70
1
43
0.0
10
146.38481140136719
20
76.15986824035646
10
146.35418891906738
20
76.317086219787612
10
146.3037109375
20
76.469101905822768
10
146.23422622680664
20
76.613421440124526
10
146.14684104919434
20
76.74766063690187
10
146.04301452636719
20
76.869621276855483
10
145.9244441986084
20
76.977310180664077
10
145.79306602478027
20
77.068948745727553
10
145.65104484558105
20
77.143034934997573
10
145.50073623657227
20
77.198357582092299
10
145.34457206726074
20
77.233996391296401
10
145.18513679504395
20
77.249374389648452
10
145.02504348754883
20
77.244238853454604
10
144.86691474914551
20
77.218680381774917
10
144.71336364746094
20
77.173104286193862
10
144.56689834594727
20
77.108268737792983
10
144.429931640625
20
77.025237083435073
10
144.30468559265137
20
76.92536830902101
10
144.19326782226562
20
76.810302734375014
10
144.09746170043945
20
76.681938171386733
10
144.01885986328125
20
76.54237270355226
10
143.95875930786133
20
76.393904685974135
10
143.91812324523926
20
76.238970756530776
10
143.89764785766602
20
76.080107688903823
10
143.89764785766602
20
75.919928550720229
10
143.91812324523926
20
75.761070251464858
10
143.95875930786133
20
75.606131553649917
10
144.01885986328125
20
75.457663536071792
10
144.09746170043945
20
75.318102836608901
10
144.19326782226562
20
75.18973827362062
10
144.30468559265137
20
75.074667930603042
10
144.429931640625
20
74.974799156188979
10
144.56689834594727
20
74.891772270202651
10
144.71336364746094
20
74.826936721801772
10
144.86691474914551
20
74.781355857849135
10
145.02504348754883
20
74.755797386169448
10
145.18513679504395
20
74.750666618347182
10
145.34457206726074
20
74.766044616699233
10
145.50073623657227
20
74.801683425903335
10
145.65104484558105
20
74.857001304626479
10
145.79306602478027
20
74.931092262268081
10
145.9244441986084
20
75.022730827331557
10
146.04301452636719
20
75.130419731140151
10
146.14684104919434
20
75.252380371093764
10
146.23422622680664
20
75.386619567871108
10
146.3037109375
20
75.530939102172866
10
146.35418891906738
20
75.682954788208022
10
146.38481140136719
20
75.840172767639174
10
146.39506340026855
20
76.000022888183608
0
LWPOLYLINE
5
161
100
AcDbEntity
8
0
100
AcDbPolyline
90
49
70
1
43
0.0
10
-43.615317344665527
20
19.159826040267955
10
-43.645939826965332
20
19.317048788070689
10
-43.696413040161133
20
19.469064474105846
10
-43.765907287597656
20
19.613379240036021
10
-43.853292465209961
20
19.747619628906261
10
-43.957118988037109
20
19.86958384513856
10
-44.07569408416748
20
19.977270364761363
10
-44.207067489624023
20
20.068910121917739
10
-44.349079132080078
20
20.142996311187758
10
-44.499397277832031
20
20.198314189910903
10
-44.655556678771973
20
20.233957767486586
10
-44.81499195098877
20
20.249338150024428
10
-44.975085258483887
20
20.244204998016372
10
-45.133209228515625
20
20.218641757965102
10
-45.286765098571777
20
20.173068046569838
10
-45.433230400085449
20
20.108230113983169
10
-45.570201873779297
20
20.025196075439467
10
-45.695433616638184
20
19.925329685211192
10
-45.806865692138672
20
19.810266494750987
10
-45.902667045593262
20
19.68190073966981
10
-45.981268882751465
20
19.542335271835338
10
-46.041378974914551
20
19.393866062164317
10
-46.082005500793457
20
19.238929748535167
10
-46.102490425109863
20
19.080069065094005
10
-46.102490425109863
20
18.919893503189098
10
-46.082005500793457
20
18.761032819747935
10
-46.041378974914551
20
18.606096506118785
10
-45.981268882751465
20
18.457626104354869
10
-45.902667045593262
20
18.318061828613292
10
-45.806865692138672
20
18.189696073532115
10
-45.695433616638184
20
18.07463288307191
10
-45.570201873779297
20
17.974766492843639
10
-45.433230400085449
20
17.891731262207042
10
-45.286765098571777
20
17.826894521713267
10
-45.133209228515625
20
17.781320810318004
10
-44.975085258483887
20
17.755756378173839
10
-44.81499195098877
20
17.750624418258678
10
-44.655556678771973
20
17.766002416610728
10
-44.499397277832031
20
17.801645994186412
10
-44.349079132080078
20
17.856963872909557
10
-44.207067489624023
20
17.931053638458263
10
-44.07569408416748
20
18.022692203521739
10
-43.957118988037109
20
18.130377531051646
10
-43.853292465209961
20
18.252342939376842
10
-43.765907287597656
20
18.386583328247081
10
-43.696413040161133
20
18.530896902084361
10
-43.645939826965332
20
18.682912588119517
10
-43.615317344665527
20
18.840134143829356
10
-43.605055809020996
20
18.999980688095103
0
LWPOLYLINE
5
162
100
AcDbEntity
8
0
100
AcDbPolyline
90
49
70
1
43
0.0
10
51.384744644165039
20
57.15985298156739
10
51.354126930236816
20
57.317075729370124
10
51.303653717041016
20
57.469091415405281
10
51.23415470123291
20
57.613406181335456
10
51.146774291992188
20
57.7476453781128
10
51.042943000793457
20
57.869610786437995
10
50.924372673034668
20
57.977294921875007
10
50.792999267578125
20
58.068938255310066
10
50.65098762512207
20
58.143019676208503
10
50.500669479370117
20
58.19834232330323
10
50.344505310058594
20
58.233981132507331
10
50.185070037841797
20
58.249363899230964
10
50.024981498718262
20
58.244233131408699
10
49.866857528686523
20
58.218665122985847
10
49.713301658630371
20
58.173093795776374
10
49.566836357116699
20
58.108258247375495
10
49.42986011505127
20
58.025221824646003
10
49.304633140563965
20
57.925353050231941
10
49.193201065063477
20
57.810292243957527
10
49.097399711608887
20
57.681927680969245
10
49.018797874450684
20
57.542362213134773
10
48.958687782287598
20
57.393889427185066
10
48.918056488037109
20
57.238955497741706
10
48.897576332092285
20
57.080092430114753
10
48.897576332092285
20
56.919918060302741
10
48.918056488037109
20
56.76105976104737
10
48.958687782287598
20
56.606121063232429
10
49.018797874450684
20
56.457653045654304
10
49.097399711608887
20
56.318087577819831
10
49.193201065063477
20
56.18972301483155
10
49.304633140563965
20
56.074657440185554
10
49.42986011505127
20
55.974793434143074
10
49.566836357116699
20
55.891757011413581
10
49.713301658630371
20
55.826921463012702
10
49.866857528686523
20
55.781345367431648
10
50.024981498718262
20
55.755782127380378
10
50.185070037841797
20
55.750651359558113
10
50.344505310058594
20
55.766029357910163
10
50.500669479370117
20
55.801672935485847
10
50.65098762512207
20
55.856990814208991
10
50.792999267578125
20
55.931077003479011
10
50.924372673034668
20
56.022715568542488
10
51.042943000793457
20
56.130404472351081
10
51.146774291992188
20
56.252369880676277
10
51.23415470123291
20
56.38660907745362
10
51.303653717041016
20
56.530923843383796
10
51.354126930236816
20
56.682939529418952
10
51.384744644165039
20
56.840162277221687
10
51.395010948181152
20
57.000007629394538
0
ENDSEC
0
SECTION
2
OBJECTS
0
DICTIONARY
5
C
100
AcDbDictionary
3
ACAD_GROUP
350
D
3
ACAD_MLINESTYLE
350
17
0
DICTIONARY
5
D
100
AcDbDictionary
0
DICTIONARY
5
1A
330
C
100
AcDbDictionary
0
DICTIONARY
5
17
100
AcDbDictionary
0
ENDSEC
0
EOF